<?xml version="1.0" encoding="UTF-8" standalone="no"?>
<svg
   inkscape:version="1.2.1 (9c6d41e410, 2022-07-14)"
   sodipodi:docname="HIFIS_claim.svg"
   id="svg94"
   viewBox="-2494.815 1590.484 997.91707 153.11695"
   version="1.1"
   height="153.11696pt"
   width="997.91705pt"
   xmlns:inkscape="http://www.inkscape.org/namespaces/inkscape"
   xmlns:sodipodi="http://sodipodi.sourceforge.net/DTD/sodipodi-0.dtd"
   xmlns="http://www.w3.org/2000/svg"
   xmlns:svg="http://www.w3.org/2000/svg"
   xmlns:rdf="http://www.w3.org/1999/02/22-rdf-syntax-ns#"
   xmlns:cc="http://creativecommons.org/ns#"
   xmlns:dc="http://purl.org/dc/elements/1.1/">
  <metadata
     id="metadata98">
    <rdf:RDF>
      <cc:Work
         rdf:about="">
        <dc:format>image/svg+xml</dc:format>
        <dc:type
           rdf:resource="http://purl.org/dc/dcmitype/StillImage" />
        <dc:title>211027_HiFiS_Plakat</dc:title>
      </cc:Work>
    </rdf:RDF>
  </metadata>
  <sodipodi:namedview
     inkscape:current-layer="svg94"
     inkscape:window-maximized="1"
     inkscape:window-y="0"
     inkscape:window-x="1920"
     inkscape:cy="-33.960765"
     inkscape:cx="562.52959"
     inkscape:zoom="0.57419202"
     showgrid="false"
     id="namedview96"
     inkscape:window-height="1126"
     inkscape:window-width="1920"
     inkscape:pageshadow="2"
     inkscape:pageopacity="0"
     guidetolerance="10"
     gridtolerance="10"
     objecttolerance="10"
     borderopacity="1"
     bordercolor="#666666"
     pagecolor="#ffffff"
     inkscape:showpageshadow="2"
     inkscape:pagecheckerboard="0"
     inkscape:deskcolor="#d1d1d1"
     inkscape:document-units="pt" />
  <!--
	Exported with Concepts: Smarter Sketching
	Version: 1055 on iOS 15.3
	https://concepts.app/
	-->
  <title
     id="title2">211027_HiFiS_Plakat</title>
  <desc
     id="desc4">Drawing exported from Concepts: Smarter Sketching</desc>
  <defs
     id="defs6" />
  <g
     id="g1955"
     inkscape:label="text"
     transform="translate(6.211647,1.8674651)">
    <path
       id="STROKE_7bb8944f-28cb-4d77-b712-facb0e82403f"
       opacity="1"
       fill="none"
       stroke="#1c1f2a"
       stroke-width="5"
       stroke-opacity="1"
       stroke-linecap="round"
       stroke-linejoin="round"
       d="m -2211.469,1610.116 q -0.085,0.404 -0.025,0.536 0.061,0.131 0.714,5.038 0.653,4.907 1.29,11.406 0.637,6.499 1.011,10.307 0.373,3.809 0.563,5.667 0.191,1.857 0.459,3.549 0.269,1.692 1.12,4.613" />
    <path
       id="STROKE_38637bd8-0e31-4858-8981-90b5d8b99d1a"
       opacity="1"
       fill="none"
       stroke="#1c1f2a"
       stroke-width="5"
       stroke-opacity="1"
       stroke-linecap="round"
       stroke-linejoin="round"
       d="m -2210.043,1610.585 0.152,0.144 q 0.031,0 1.578,0.307 1.547,0.303 3.862,1.255 2.315,0.951 3.747,1.673 1.432,0.721 2.794,1.859 1.363,1.138 2.463,2.606 1.1,1.467 1.96,2.944 0.86,1.476 1.696,3.714 0.835,2.239 1.126,3.432 0.292,1.193 0.432,2.923 0.14,1.73 0.063,3.142 -0.077,1.413 -0.419,3.111 -0.341,1.697 -1.027,3.348 -0.685,1.651 -1.202,2.547 -0.517,0.895 -1.078,1.613 -0.561,0.718 -1.33,1.465 -0.769,0.748 -1.305,1.162 -0.537,0.415 -1.339,0.892 -0.801,0.476 -1.413,0.766 -0.612,0.289 -2.071,0.787 -1.458,0.497 -2.59,0.783 -1.131,0.286 -1.692,0.36 -0.561,0.074 -1.092,0.133" />
    <path
       id="STROKE_2f15e8f8-ca03-442d-8113-a48885a5d31f"
       opacity="1"
       fill="none"
       stroke="#1c1f2a"
       stroke-width="5"
       stroke-opacity="1"
       stroke-linecap="round"
       stroke-linejoin="round"
       d="m -2182.986,1617.787 q -0.159,0.777 -0.173,1.546 -0.014,0.77 0.147,2.788 0.161,2.019 0.679,6.263 0.518,4.244 0.853,6.349 0.336,2.105 0.761,4.538 0.425,2.432 0.589,4.622 0.164,2.19 0.059,3.865 l -0.084,0.362" />
    <path
       id="STROKE_58f95e76-c8a3-477c-ba01-b34db7dac82a"
       opacity="1"
       fill="none"
       stroke="#1c1f2a"
       stroke-width="5"
       stroke-opacity="1"
       stroke-linecap="round"
       stroke-linejoin="round"
       d="m -2183.371,1610.208 -0.577,-0.374 -0.249,-0.127" />
    <path
       id="STROKE_dac49250-fb9b-456f-96d2-7e8cb3d829ea"
       opacity="1"
       fill="none"
       stroke="#1c1f2a"
       stroke-width="5"
       stroke-opacity="1"
       stroke-linecap="round"
       stroke-linejoin="round"
       d="m -2155.489,1617.634 q -1.131,-3.226 -1.971,-4.343 -0.841,-1.117 -2.074,-1.941 -1.233,-0.823 -2.216,-1.12 -0.983,-0.297 -1.52,-0.319 -0.537,-0.023 -1.021,0.059 -0.484,0.081 -0.891,0.199 -0.408,0.117 -1.388,0.663 -0.98,0.545 -2.024,1.704 -1.044,1.158 -1.96,2.776 -0.916,1.619 -1.472,4.5 -0.556,2.882 -0.688,4.469 -0.132,1.586 -0.144,3.511 -0.013,1.926 0.114,3.968 0.127,2.041 0.645,4.161 0.519,2.12 1.039,3.395 0.52,1.276 1.383,2.601 0.862,1.324 1.878,2.392 1.016,1.068 2.096,1.767 1.08,0.7 2.162,1.06 1.082,0.361 2.009,0.389 0.928,0.027 1.786,-0.277 0.858,-0.303 1.914,-1.442 1.057,-1.139 1.7,-2.404 0.643,-1.264 1.088,-2.411 0.446,-1.146 0.907,-3.389 0.461,-2.243 0.124,-6.025 0,0.012 -0.484,0.267 -0.482,0.254 -1.07,0.548 -0.588,0.293 -1.07,0.505 -0.481,0.212 -1.446,0.464 -0.966,0.252 -2.334,-0.01 -0.014,-0.037 0.018,-0.23 0.031,-0.194 0.059,-0.449" />
    <path
       id="STROKE_032e222b-7f21-4fe9-85b1-8ebdb7491393"
       opacity="1"
       fill="none"
       stroke="#1c1f2a"
       stroke-width="5"
       stroke-opacity="1"
       stroke-linecap="round"
       stroke-linejoin="round"
       d="m -2147.261,1618.502 0.157,0.286 q 0.115,0.257 0.591,5.585 0.477,5.327 0.704,8.723 0.228,3.396 1.914,10.294" />
    <path
       id="STROKE_5adeb900-4264-49cd-8f7f-450c8a86b789"
       opacity="1"
       fill="none"
       stroke="#1c1f2a"
       stroke-width="5"
       stroke-opacity="1"
       stroke-linecap="round"
       stroke-linejoin="round"
       d="m -2146.037,1608.086 q -0.104,-0.064 -0.514,-0.344 -0.409,-0.28 -0.665,-0.474" />
    <path
       id="STROKE_64939dba-eaf1-441c-bdbc-8c1c2cf7d456"
       opacity="1"
       fill="none"
       stroke="#1c1f2a"
       stroke-width="5"
       stroke-opacity="1"
       stroke-linecap="round"
       stroke-linejoin="round"
       d="m -2131.664,1613.848 q 0.03,0.058 0.586,4.434 0.555,4.375 0.806,6.865 0.25,2.491 0.878,6.821 0.628,4.33 1.051,7.308 0.422,2.977 0.419,5.624 l -0.165,0.368" />
    <path
       id="STROKE_e9f902af-42cc-45cb-87f0-497553e9c578"
       opacity="1"
       fill="none"
       stroke="#1c1f2a"
       stroke-width="5"
       stroke-opacity="1"
       stroke-linecap="round"
       stroke-linejoin="round"
       d="m -2138.698,1614.705 0.219,-0.326 q 2.185,-0.935 5.542,-1.942 3.358,-1.008 6.142,-1.581 2.783,-0.573 4.972,-0.767 2.189,-0.193 2.471,-0.229" />
    <path
       id="STROKE_c55b31ac-d902-4a26-b8e8-a5e7b14a4d78"
       opacity="1"
       fill="none"
       stroke="#1c1f2a"
       stroke-width="5"
       stroke-opacity="1"
       stroke-linecap="round"
       stroke-linejoin="round"
       d="m -2115.068,1645.031 0.068,-0.133 q 0,-0.182 -0.07,-2.938 -0.075,-2.757 0.137,-5.439 0.211,-2.683 0.355,-4.125 0.144,-1.443 0.507,-4.264 0.363,-2.821 1.061,-5.455 0.698,-2.633 1.442,-4.264 0.744,-1.631 1.205,-2.391 0.461,-0.759 0.984,-1.226 0.524,-0.466 1.04,-0.676 0.517,-0.21 1.443,-0.093 0.927,0.117 1.854,0.882 0.926,0.765 2.33,4.122 1.404,3.358 2.188,6.117 0.784,2.76 1.61,6.525 0.826,3.766 1.218,5.672 0.393,1.907 1.003,4.188 0.61,2.281 0.803,4.514 l -0.023,0.115" />
    <path
       id="STROKE_217a936a-f60a-4aca-84cc-bc544d6b2359"
       opacity="1"
       fill="none"
       stroke="#1c1f2a"
       stroke-width="5"
       stroke-opacity="1"
       stroke-linecap="round"
       stroke-linejoin="round"
       d="m -2111.697,1632.887 q 0.029,0.055 -0.147,0.241 0.193,0.203 10.066,-1.419 l 0.475,-0.106" />
    <path
       id="STROKE_72599343-8806-42f0-9448-856e93b2f337"
       opacity="1"
       fill="none"
       stroke="#1c1f2a"
       stroke-width="5"
       stroke-opacity="1"
       stroke-linecap="round"
       stroke-linejoin="round"
       d="m -2088.707,1611.71 -0.203,0.322 q -0.116,0.393 -0.07,1.898 0.046,1.504 0.587,5.641 0.542,4.136 0.886,6.496 0.343,2.361 0.642,4.897 0.3,2.537 0.398,3.816 0.099,1.279 0.282,4.462 0.183,3.184 1.486,7.711 0.133,0.081 3.289,-0.692 3.157,-0.774 5.493,-1.256 2.337,-0.482 2.925,-0.589" />
    <path
       id="STROKE_5ebb5f20-5963-47c8-af81-ad80e3bace0f"
       opacity="1"
       fill="none"
       stroke="#1c1f2a"
       stroke-width="5"
       stroke-opacity="1"
       stroke-linecap="round"
       stroke-linejoin="round"
       d="m -2032.847,1618.895 q 0.071,-0.313 0.145,-0.751 0.075,-0.437 0.08,-0.86 0.01,-0.423 -0.065,-0.987 -0.071,-0.564 -0.331,-1.344 -0.26,-0.78 -0.858,-1.638 -0.597,-0.858 -1.549,-1.503 -0.952,-0.645 -2.097,-0.923 -1.145,-0.277 -2.608,-0.01 -1.464,0.269 -2.764,0.96 -1.301,0.692 -2.381,1.811 -1.08,1.119 -1.628,2.104 -0.549,0.986 -0.751,1.797 -0.203,0.811 -0.253,1.695 -0.05,0.883 0.171,2.035 0.22,1.152 0.906,2.36 0.687,1.209 2.173,2.311 1.485,1.102 3.141,1.861 1.655,0.759 4.225,1.784 2.569,1.024 4.272,1.87 1.703,0.845 2.98,1.771 1.277,0.925 2.132,1.887 0.854,0.961 1.379,1.909 0.526,0.948 0.768,2.114 0.242,1.165 0.026,2.407 -0.216,1.243 -0.852,2.432 -0.635,1.189 -1.683,2.184 -1.048,0.994 -2.209,1.662 -1.16,0.667 -2.312,1.04 -1.153,0.373 -2.316,0.442 -1.163,0.068 -2.482,-0.277 -1.319,-0.345 -2.324,-0.935 -1.006,-0.59 -2.38,-2.165 -1.375,-1.576 -2.059,-2.998 -0.684,-1.422 -0.936,-2.062" />
    <path
       id="STROKE_10b81ae6-bcf8-47bf-85f5-5f4437b837f6"
       opacity="1"
       fill="none"
       stroke="#1c1f2a"
       stroke-width="5"
       stroke-opacity="1"
       stroke-linecap="round"
       stroke-linejoin="round"
       d="m -2018.704,1627.188 q 0.212,-0.136 3.939,-0.728 3.727,-0.592 5.851,-0.875 2.124,-0.284 2.972,-0.574 0.848,-0.29 1.227,-0.584 0.379,-0.295 0.472,-0.624 0.093,-0.329 0.049,-0.92 -0.044,-0.592 -0.109,-1.041 -0.065,-0.45 -0.271,-1.294 -0.207,-0.845 -0.688,-2.121 -0.481,-1.277 -1.392,-2.428 -0.91,-1.152 -1.633,-1.693 -0.723,-0.542 -1.442,-0.907 -0.719,-0.365 -1.472,-0.509 -0.753,-0.144 -1.853,0.34 -1.1,0.485 -2.087,1.617 -0.987,1.133 -1.759,2.59 -0.771,1.458 -1.428,3.413 -0.657,1.954 -1.069,5.101 -0.412,3.147 -0.431,5.255 -0.018,2.107 0.226,3.832 0.244,1.725 0.619,2.905 0.375,1.179 0.884,2.259 0.509,1.08 1.46,2.304 0.952,1.223 2.189,2.238 1.237,1.016 2.492,1.646 1.254,0.631 2.224,0.84 0.97,0.209 2.219,-0.019 1.249,-0.228 3.246,-2.373 1.997,-2.144 2.532,-2.838" />
    <path
       id="STROKE_61d7212e-b9b0-4e34-8824-f8417adc4696"
       opacity="1"
       fill="none"
       stroke="#1c1f2a"
       stroke-width="5"
       stroke-opacity="1"
       stroke-linecap="round"
       stroke-linejoin="round"
       d="m -1995.253,1616.078 q 0.058,0 0.088,-0.095 -0.01,0 0.034,0.329 0.043,0.331 0.305,3.267 0.261,2.935 0.61,7.668 0.348,4.733 0.497,7.308 0.148,2.575 0.184,3.624 0.037,1.05 0.274,3.242 0.238,2.192 0.539,3.192 0.3,1 0.463,1.44" />
    <path
       id="STROKE_cf65ff85-18ba-4441-9e20-67f1ad5b7ccf"
       opacity="1"
       fill="none"
       stroke="#1c1f2a"
       stroke-width="5"
       stroke-opacity="1"
       stroke-linecap="round"
       stroke-linejoin="round"
       d="m -1994.938,1615.665 0.308,-10e-4 0.446,-0.328 q 0.512,-0.338 0.558,-0.369 0.044,-0.03 0.964,-0.6 0.92,-0.57 2.387,-1.101 1.468,-0.531 2.744,-0.719 1.275,-0.188 2.959,0.12 1.685,0.307 2.759,0.825 1.074,0.519 1.802,1.213 0.727,0.694 0.993,1.154 0.267,0.461 0.335,1.127 0.069,0.666 -0.3,1.863 -0.369,1.197 -1.449,2.665 -1.08,1.468 -2.196,2.396 -1.115,0.928 -3.241,1.886 -2.125,0.957 -3.474,1.385 -1.348,0.428 -2.177,0.68 0.019,0 3.039,2.622 3.02,2.624 5.085,4.321 2.066,1.697 3.112,2.547 1.046,0.85 2.184,1.761 1.139,0.911 3.04,2.573 1.901,1.661 3.026,2.874 1.124,1.212 1.998,2.386 l 0.078,0.066" />
    <path
       id="STROKE_f4186667-21db-41e8-8bbe-f20b7b8c3bac"
       opacity="1"
       fill="none"
       stroke="#1c1f2a"
       stroke-width="5"
       stroke-opacity="1"
       stroke-linecap="round"
       stroke-linejoin="round"
       d="m -1971.158,1614.659 q 0,0.055 -0.01,0.311 -0.012,0.257 0.675,2.404 0.686,2.148 1.584,4.462 0.897,2.313 1.547,3.813 0.651,1.499 1.541,3.593 0.891,2.094 1.41,3.288 0.519,1.194 1.894,4.579 1.376,3.385 2.35,6.009 0.974,2.623 1.429,3.771 0.456,1.147 0.74,1.721 0.284,0.573 0.509,0.854 0.104,-0.048 0.493,-2.596 0.389,-2.549 0.59,-4.206 0.201,-1.657 0.395,-2.931 0.193,-1.274 0.586,-3.378 0.392,-2.105 1.024,-4.76 0.633,-2.656 1.988,-7.179 1.355,-4.523 2.049,-6.774 0.694,-2.252 1.07,-3.588 0.375,-1.335 0.767,-2.234 0.057,-0.016 0.213,-0.025 0.156,-0.01 0.331,-0.034" />
    <path
       id="STROKE_c3a00e8e-ab4f-46e5-9ac5-0517a544a547"
       opacity="1"
       fill="none"
       stroke="#1c1f2a"
       stroke-width="5"
       stroke-opacity="1"
       stroke-linecap="round"
       stroke-linejoin="round"
       d="m -1940.155,1619.901 q -0.113,0.187 0.157,3.641 0.269,3.455 0.667,9.149 0.398,5.694 1.217,11.375 l 0.1,0.427" />
    <path
       id="STROKE_041857f0-9748-469a-bed0-9073739ad844"
       opacity="1"
       fill="none"
       stroke="#1c1f2a"
       stroke-width="5"
       stroke-opacity="1"
       stroke-linecap="round"
       stroke-linejoin="round"
       d="m -1938.36,1608.388 -1.07,-0.607" />
    <path
       id="STROKE_2461c9b6-e6e7-45ea-8b9f-624d77af01f6"
       opacity="1"
       fill="none"
       stroke="#1c1f2a"
       stroke-width="5"
       stroke-opacity="1"
       stroke-linecap="round"
       stroke-linejoin="round"
       d="m -1913.592,1618.942 q -0.053,-0.391 -0.31,-1.431 -0.257,-1.04 -0.6,-1.736 -0.344,-0.696 -0.784,-1.175 -0.439,-0.479 -1.29,-0.893 -0.851,-0.414 -1.804,-0.508 -0.952,-0.095 -2.161,0.375 -1.209,0.47 -1.677,0.816 -0.468,0.346 -1.031,0.886 -0.563,0.539 -1.261,1.387 -0.698,0.849 -1.646,2.474 -0.949,1.626 -1.698,3.653 -0.748,2.027 -1.197,4.076 -0.448,2.049 -0.504,4.012 -0.056,1.962 0.013,3.199 0.068,1.236 0.326,2.667 0.258,1.431 0.712,2.606 0.453,1.176 1.243,2.412 0.79,1.237 2.1,2.327 1.31,1.091 2.467,1.651 1.157,0.559 1.813,0.725 0.656,0.166 1.187,0.185 0.531,0.019 1.22,-0.113 0.688,-0.132 1.512,-0.752 0.824,-0.62 1.43,-1.438 0.606,-0.819 1.43,-2.382 0.824,-1.564 1.079,-2.059" />
    <path
       id="STROKE_674589c9-9b3a-4046-8242-a2a27045be50"
       opacity="1"
       fill="none"
       stroke="#1c1f2a"
       stroke-width="5"
       stroke-opacity="1"
       stroke-linecap="round"
       stroke-linejoin="round"
       d="m -1905.454,1627.659 q 0.13,-0.098 3.624,-0.551 3.494,-0.453 5.338,-0.636 1.844,-0.183 2.558,-0.389 0.714,-0.207 1.123,-0.439 0.41,-0.233 0.548,-0.511 0.138,-0.278 0.01,-1.824 -0.133,-1.546 -0.468,-2.611 -0.336,-1.065 -0.629,-1.746 -0.293,-0.681 -0.959,-1.872 -0.666,-1.19 -1.406,-2.109 -0.739,-0.919 -1.536,-1.485 -0.797,-0.566 -1.493,-0.74 -0.696,-0.174 -1.65,0.138 -0.953,0.312 -1.553,0.752 -0.601,0.441 -0.949,0.782 -0.348,0.341 -0.721,0.767 -0.372,0.426 -0.959,1.519 -0.587,1.092 -0.943,2.013 -0.356,0.92 -0.742,3.254 -0.385,2.334 -0.281,5.408 0.103,3.074 0.461,5.422 0.357,2.348 0.943,4.383 0.587,2.036 1.217,3.363 0.63,1.328 1.156,2.074 0.526,0.746 1.249,1.428 0.724,0.682 1.622,1.023 0.897,0.342 1.483,0.408 0.586,0.067 1.737,-0.319 1.151,-0.386 2.367,-1.357 1.217,-0.971 1.997,-1.779 0.779,-0.807 1.326,-1.394" />
    <path
       id="STROKE_809e00b4-3a12-4ffa-b85c-26c9a37c20e4"
       opacity="1"
       fill="none"
       stroke="#1c1f2a"
       stroke-width="5"
       stroke-opacity="1"
       stroke-linecap="round"
       stroke-linejoin="round"
       d="m -1869.818,1618.743 q 0.034,-0.176 -0.165,-1.446 -0.198,-1.269 -0.453,-2.085 -0.254,-0.816 -0.601,-1.336 -0.346,-0.52 -1.11,-0.959 -0.765,-0.44 -1.528,-0.521 -0.764,-0.081 -1.809,0.207 -1.045,0.287 -2.25,1.202 -1.206,0.915 -1.911,1.864 -0.704,0.949 -1.207,2.034 -0.503,1.086 -0.888,2.367 -0.386,1.282 -0.516,2.305 -0.129,1.023 0.056,2.353 0.185,1.33 0.387,1.979 0.201,0.649 0.688,1.481 0.486,0.832 1.267,1.614 0.78,0.783 1.72,1.284 0.94,0.502 2.983,0.487 2.043,-0.015 3.238,-0.124 1.195,-0.109 2.201,0.016 1.006,0.125 1.595,0.365 0.59,0.241 1.074,0.657 0.485,0.417 0.971,1.283 0.485,0.865 0.707,1.954 0.221,1.089 0.18,1.905 -0.042,0.817 -0.391,2.104 -0.349,1.287 -1.028,2.404 -0.679,1.117 -1.603,1.922 -0.925,0.804 -2.415,1.428 -1.489,0.623 -2.889,0.784 -1.4,0.16 -2.596,-0.017 -1.197,-0.178 -2.105,-0.492 -0.909,-0.315 -1.305,-0.558 -0.396,-0.244 -0.792,-0.603 -0.396,-0.36 -0.836,-1.323 -0.44,-0.964 -0.81,-2.988" />
    <path
       id="STROKE_e7841020-fa3a-4d88-8df9-750c00a8c672"
       opacity="1"
       fill="none"
       stroke="#1c1f2a"
       stroke-width="5"
       stroke-opacity="1"
       stroke-linecap="round"
       stroke-linejoin="round"
       d="m -2481.56,1610.72 q -0.033,0 -0.264,0.027 -0.077,0.02 0.015,2.725 0.092,2.706 0.238,4.425 0.145,1.719 0.222,2.502 0.077,0.784 0.269,2.766 0.192,1.982 0.319,3.58 0.126,1.597 0.233,3.051 0.107,1.454 0.289,4.023 0.182,2.57 0.283,5.257 0.101,2.686 0.165,4.254 0.064,1.568 0.25,2.7 0.186,1.132 0.359,2.294 v 0.265" />
    <path
       id="STROKE_933fc7b2-cdef-4255-87c3-007fadd44bc5"
       opacity="1"
       fill="none"
       stroke="#1c1f2a"
       stroke-width="5"
       stroke-opacity="1"
       stroke-linecap="round"
       stroke-linejoin="round"
       d="m -2465.074,1609.454 q 0.035,0.109 0.127,0.274 0.093,0.164 0.447,2.634 0.355,2.47 0.533,5.485 0.178,3.015 0.263,4.329 0.085,1.314 0.189,2.432 0.103,1.118 0.56,4.802 0.456,3.684 0.69,5.634 0.234,1.95 0.444,3.348 0.209,1.397 0.391,2.504 0.182,1.106 0.37,2.673 0.188,1.568 0.224,2.37 0.035,0.802 0.048,1.056" />
    <path
       id="STROKE_f6978dcc-542e-4362-9498-51823af734a1"
       opacity="1"
       fill="none"
       stroke="#1c1f2a"
       stroke-width="5"
       stroke-opacity="1"
       stroke-linecap="round"
       stroke-linejoin="round"
       d="m -2477.2,1632.152 q 0.041,-0.03 0.066,-0.041 0.026,-0.011 0.968,-0.196 0.943,-0.185 1.53,-0.292 0.586,-0.108 1.209,-0.215 0.622,-0.107 3.276,-0.577 2.653,-0.47 5.251,-1.071 2.598,-0.6 3.103,-0.756" />
    <path
       id="STROKE_55f268b9-9513-4f87-aa09-831c4a022127"
       opacity="1"
       fill="none"
       stroke="#1c1f2a"
       stroke-width="5"
       stroke-opacity="1"
       stroke-linecap="round"
       stroke-linejoin="round"
       d="m -2450.299,1629.447 q 0.297,-0.083 1.63,-0.326 1.333,-0.243 3.747,-0.583 2.414,-0.34 4.069,-0.61 1.656,-0.271 2.417,-0.498 0.762,-0.227 1.149,-0.452 0.387,-0.224 0.538,-0.443 0.15,-0.219 0.188,-0.468 0.038,-0.25 -0.215,-1.567 -0.252,-1.317 -0.488,-2.332 -0.235,-1.015 -0.631,-2.364 -0.396,-1.348 -0.727,-2.155 -0.331,-0.807 -1.008,-1.925 -0.678,-1.118 -1.289,-1.807 -0.611,-0.689 -1.511,-1.179 -0.9,-0.49 -1.411,-0.66 -0.51,-0.169 -1.18,-0.216 -0.669,-0.047 -1.539,0.242 -0.869,0.289 -1.709,1.063 -0.839,0.775 -1.721,2.334 -0.881,1.561 -1.406,3.58 -0.526,2.019 -0.715,3.482 -0.189,1.463 -0.235,3.432 -0.047,1.969 -0.02,2.952 0.028,0.982 0.237,3.115 0.21,2.133 0.716,4.592 0.507,2.458 1.009,4.005 0.502,1.547 0.968,2.544 0.466,0.996 1.202,2.146 0.736,1.151 1.571,2.022 0.836,0.871 1.872,1.501 1.036,0.629 1.846,0.84 0.811,0.212 1.786,0.088 0.974,-0.124 2.531,-1.009 1.556,-0.885 2.904,-2.215 1.349,-1.33 1.836,-1.851" />
    <path
       id="STROKE_08d9a852-6d6c-4f54-ba3b-c0b60bd4ca41"
       opacity="1"
       fill="none"
       stroke="#1c1f2a"
       stroke-width="5"
       stroke-opacity="1"
       stroke-linecap="round"
       stroke-linejoin="round"
       d="m -2426.734,1614.993 q 0.172,0.196 0.189,0.226 0.018,0.03 0.146,1.841 0.129,1.81 0.226,3.682 0.097,1.872 0.525,6.133 0.427,4.262 0.667,7.177 0.24,2.915 0.305,4.264 0.066,1.35 0.096,1.977 0.03,0.627 0.049,1.077 0.019,0.45 0.096,1.839 0.078,1.39 0.14,2.103 0.061,0.713 0.189,1.152 0.127,0.438 0.274,0.67 0.147,0.232 0.304,0.289 0.156,0.058 0.488,0.074 0.332,0.015 0.585,-0.018 0.253,-0.033 0.839,-0.171 0.586,-0.137 1.008,-0.239 0.421,-0.101 1.228,-0.268 0.807,-0.167 2.728,-0.208 1.921,-0.041 3.124,-0.028 1.204,0.013 1.801,-0.082 0.597,-0.096 0.842,-0.144" />
    <path
       id="STROKE_79f4792a-1e16-49ca-b185-71e5fb607678"
       opacity="1"
       fill="none"
       stroke="#1c1f2a"
       stroke-width="5"
       stroke-opacity="1"
       stroke-linecap="round"
       stroke-linejoin="round"
       d="m -2401.989,1647.516 q -0.01,-0.034 -0.243,-0.348 -0.234,-0.314 -0.316,-2.635 -0.083,-2.321 -0.086,-5.003 0,-2.682 -0.148,-5.506 -0.145,-2.824 -0.256,-4.233 -0.112,-1.409 -0.206,-2.357 -0.094,-0.948 -0.206,-2.205 -0.112,-1.257 -0.179,-2.195 -0.066,-0.937 -0.184,-6.42 0.042,0.036 0.426,1.174 0.384,1.138 1.52,3.755 1.135,2.618 1.801,3.966 0.666,1.348 1.028,2.03 0.363,0.681 1.433,2.59 1.069,1.909 1.696,3.143 0.626,1.234 1.318,2.875 0.691,1.641 1.336,2.622 0.226,10e-4 1.314,-1.473 1.088,-1.475 1.8,-2.969 0.712,-1.494 1.73,-4.178 1.017,-2.683 2.311,-6.37 1.295,-3.686 4.197,-9.524 0.146,0.199 0.291,0.96 0.146,0.76 0.32,2.308 0.174,1.548 0.317,2.591 0.144,1.043 0.306,2.108 0.162,1.065 0.984,5.497 0.822,4.431 1.528,8.339 0.706,3.909 1.033,5.781 0.328,1.872 0.473,2.841 0.145,0.969 0.071,1.654 -0.073,0.685 -0.154,1.152" />
    <path
       id="STROKE_9a43648e-6887-4a56-b7e9-7292b5ff3b85"
       opacity="1"
       fill="none"
       stroke="#1c1f2a"
       stroke-width="5"
       stroke-opacity="1"
       stroke-linecap="round"
       stroke-linejoin="round"
       d="m -2367.386,1614.548 q 0.108,0.323 0.185,1.371 0.078,1.047 0.365,5.54 0.286,4.494 0.462,7.148 0.176,2.655 0.259,3.962 0.082,1.307 0.292,4.393 0.209,3.085 0.333,4.681 0.123,1.596 0.386,3.426 0.263,1.829 0.672,3.552 l 0.129,0.151" />
    <path
       id="STROKE_a6ad5156-b2c0-48bc-ada3-44e055d552db"
       opacity="1"
       fill="none"
       stroke="#1c1f2a"
       stroke-width="5"
       stroke-opacity="1"
       stroke-linecap="round"
       stroke-linejoin="round"
       d="m -2350.432,1613.819 q 10e-4,0.04 0.223,3.943 0.222,3.904 0.522,6.876 0.3,2.972 0.485,4.563 0.185,1.591 0.517,4.252 0.332,2.661 0.661,4.59 0.328,1.929 0.87,4.127 0.542,2.198 0.835,3.445 0.292,1.246 0.364,1.883 0.073,0.637 0.054,0.905 -0.018,0.269 -0.049,0.669" />
    <path
       id="STROKE_56c57596-acd8-4a28-b19e-a710dfdcaeaf"
       opacity="1"
       fill="none"
       stroke="#1c1f2a"
       stroke-width="5"
       stroke-opacity="1"
       stroke-linecap="round"
       stroke-linejoin="round"
       d="m -2363.17,1633.7 0.051,0.037 q 0.115,0.031 1.932,-0.209 1.817,-0.241 3.279,-0.452 1.462,-0.212 4.133,-0.507 2.671,-0.295 3.158,-0.359" />
    <path
       id="STROKE_ec7af44a-a82d-44f8-9400-181a9cdebacc"
       opacity="1"
       fill="none"
       stroke="#1c1f2a"
       stroke-width="5"
       stroke-opacity="1"
       stroke-linecap="round"
       stroke-linejoin="round"
       d="m -2332.305,1612.404 q -0.02,0.019 -0.61,0.332 -0.589,0.312 -1.233,1.094 -0.645,0.782 -0.898,1.266 -0.254,0.484 -0.744,1.848 -0.491,1.364 -0.761,2.527 -0.271,1.162 -0.613,3.652 -0.343,2.49 -0.453,3.724 -0.11,1.234 -0.153,2.042 -0.042,0.808 -0.034,2.571 0.01,1.764 0.183,3.402 0.176,1.639 0.394,2.615 0.218,0.976 0.722,2.012 0.505,1.035 1.14,1.852 0.635,0.816 1.39,1.57 0.756,0.753 1.435,1.248 0.68,0.496 1.439,0.857 0.759,0.362 1.571,0.444 0.812,0.083 1.492,-0.029 0.679,-0.112 1.428,-0.418 0.749,-0.305 1.564,-1.028 0.815,-0.723 1.313,-1.444 0.497,-0.72 0.854,-1.496 0.356,-0.776 0.632,-1.533 0.277,-0.758 0.598,-2.167 0.322,-1.409 0.463,-2.457 0.142,-1.049 0.248,-3.44 0.105,-2.391 0.099,-3.642 -0.01,-1.25 -0.056,-1.964 -0.048,-0.714 -0.168,-1.628 -0.12,-0.914 -0.27,-1.877 -0.15,-0.964 -0.268,-1.488 -0.118,-0.524 -0.214,-0.887 -0.096,-0.364 -0.679,-1.768 -0.582,-1.404 -0.936,-2.14 -0.353,-0.735 -0.793,-1.271 -0.441,-0.537 -1.471,-1.352 -1.03,-0.816 -1.776,-1.352 -0.746,-0.535 -1.912,-0.964 -1.165,-0.428 -1.889,-0.481 -0.725,-0.054 -1.013,-0.035" />
    <path
       id="STROKE_64e793b3-7e41-4652-a2b3-d5ed84060375"
       opacity="1"
       fill="none"
       stroke="#1c1f2a"
       stroke-width="5"
       stroke-opacity="1"
       stroke-linecap="round"
       stroke-linejoin="round"
       d="m -2311.829,1612.629 -0.103,0.116 q -0.04,0.124 0.259,2.662 0.298,2.539 0.738,6.048 0.439,3.51 0.638,5.264 0.199,1.753 0.286,2.54 0.087,0.786 0.253,2.603 0.167,1.818 0.297,3.446 0.13,1.628 0.299,3.433 0.17,1.805 0.381,3.465 0.21,1.66 0.377,2.403 0.167,0.742 0.331,1.075 0.163,0.333 0.264,0.437 0.102,0.104 0.431,0.155 0.329,0.05 0.544,0.01 0.214,-0.039 0.543,-0.119 0.33,-0.08 1.011,-0.308 0.681,-0.227 2.395,-0.479 1.714,-0.251 2.802,-0.307 1.089,-0.056 1.84,-0.08 0.751,-0.025 1.174,-0.05" />
    <path
       id="STROKE_4893ac5b-af16-4c4b-b72c-7968d566df25"
       opacity="1"
       fill="none"
       stroke="#1c1f2a"
       stroke-width="5"
       stroke-opacity="1"
       stroke-linecap="round"
       stroke-linejoin="round"
       d="m -2286.483,1615.185 q -0.087,0.175 0.265,4.756 0.353,4.58 0.603,7.291 0.25,2.711 0.332,3.984 0.083,1.274 0.277,4.294 0.194,3.021 0.308,4.889 0.115,1.867 0.573,3.762 0.458,1.894 0.51,2.062" />
    <path
       id="STROKE_240d65c0-b442-47e3-aa32-eb369efef526"
       opacity="1"
       fill="none"
       stroke="#1c1f2a"
       stroke-width="5"
       stroke-opacity="1"
       stroke-linecap="round"
       stroke-linejoin="round"
       d="m -2295.355,1614.697 0.047,-0.01 q 0.161,0.044 1.39,-0.074 1.228,-0.117 3.526,-0.538 2.298,-0.421 4.06,-0.699 1.762,-0.277 3.726,-0.482 1.963,-0.205 3.247,-0.368 1.284,-0.163 1.879,-0.246" />
    <path
       id="STROKE_bc4bf743-fca0-44c4-9b7e-f4beff9a4ef9"
       opacity="1"
       fill="none"
       stroke="#1c1f2a"
       stroke-width="5"
       stroke-opacity="1"
       stroke-linecap="round"
       stroke-linejoin="round"
       d="m -2267.761,1612.414 q 0.055,-0.093 1.27,-0.393 1.215,-0.3 2.154,-0.496 0.938,-0.196 1.584,-0.327 0.646,-0.132 2.216,-0.392 1.571,-0.26 2.751,-0.331 1.18,-0.072 1.959,0.024 0.779,0.097 1.361,0.406 0.062,0.032 -1.877,5.057 -1.939,5.025 -3.182,8.227 -1.243,3.203 -1.954,4.911 -0.712,1.708 -1.404,3.247 -0.692,1.539 -1.163,2.527 -0.471,0.987 -1.772,3.635 -1.302,2.647 -2.088,4.4 -0.787,1.753 -1.175,2.914 -0.387,1.16 -0.105,2.461 0.203,0.144 1.111,0.056 0.907,-0.089 1.994,-0.302 1.087,-0.212 3.573,-0.432 2.486,-0.219 4.093,-0.25 1.607,-0.031 2.553,-0.01 0.945,0.024 2.275,0.133 1.33,0.11 1.879,0.118 0.549,0.01 0.8,-0.035 0.251,-0.043 0.802,-0.418" />
    <path
       id="STROKE_c73eb821-d5d8-49bf-ba5c-6a317d720f1e"
       opacity="1"
       fill="none"
       stroke="#1c1f2a"
       stroke-width="5"
       stroke-opacity="1"
       stroke-linecap="round"
       stroke-linejoin="round"
       d="m -2270.399,1629.348 q 0.1,0.018 1.422,-0.188 1.322,-0.207 2.953,-0.42 1.63,-0.213 2.839,-0.34 1.209,-0.127 2.337,-0.192 1.128,-0.066 2.687,-0.035 1.558,0.03 1.969,0.034" />
    <path
       id="STROKE_cb16e47b-653e-4d59-ae67-441e0d464b0b"
       opacity="1"
       fill="none"
       stroke="#1c1f2a"
       stroke-width="5"
       stroke-opacity="1"
       stroke-linecap="round"
       stroke-linejoin="round"
       d="m -1830.021,1611.886 q -0.142,1.108 -0.201,1.825 -0.059,0.717 -0.037,2.998 0.021,2.28 0.13,3.922 0.11,1.642 0.293,6.309 0.183,4.666 0.203,8.291 0.019,3.624 -0.123,7.113 -0.141,3.489 -0.274,4.944 -0.134,1.454 -0.166,1.987" />
    <path
       id="STROKE_21037e39-256a-463a-97f2-14d21d01b0f1"
       opacity="1"
       fill="none"
       stroke="#1c1f2a"
       stroke-width="5"
       stroke-opacity="1"
       stroke-linecap="round"
       stroke-linejoin="round"
       d="m -1829.26,1611.66 0.256,0.102 q 0.462,0.081 0.511,0.056 0.489,0.01 4.821,-1.178 4.332,-1.184 7.193,-1.769 2.861,-0.585 3.183,-0.642" />
    <path
       id="STROKE_a86a07f5-24a0-4f87-88b0-efce9f11058b"
       opacity="1"
       fill="none"
       stroke="#1c1f2a"
       stroke-width="5"
       stroke-opacity="1"
       stroke-linecap="round"
       stroke-linejoin="round"
       d="m -1828.98,1630.566 q 0.454,0.183 12.225,-3.605" />
    <path
       id="STROKE_1acd73f6-9764-4448-b454-fdb4041681bb"
       opacity="1"
       fill="none"
       stroke="#1c1f2a"
       stroke-width="5"
       stroke-opacity="1"
       stroke-linecap="round"
       stroke-linejoin="round"
       d="m -1803.63,1618.929 q -0.064,0.024 -0.825,0.572 -0.76,0.547 -1.609,1.67 -0.849,1.122 -1.498,2.828 -0.65,1.705 -0.837,4.252 -0.186,2.546 -0.18,3.876 0.01,1.33 0.138,2.858 0.131,1.528 0.314,2.671 0.184,1.143 0.637,2.555 0.453,1.412 1.3,2.679 0.846,1.267 1.987,2.134 1.141,0.866 1.955,1.215 0.814,0.349 1.25,0.43 0.436,0.082 1.39,0.024 0.953,-0.058 2.166,-0.632 1.213,-0.573 2.53,-2.159 1.316,-1.586 1.949,-3.12 0.633,-1.534 0.852,-2.445 0.218,-0.912 0.404,-2.278 0.187,-1.367 0.274,-2.868 0.087,-1.501 0.086,-3.126 0,-1.625 -0.173,-3.279 -0.173,-1.655 -0.576,-3.004 -0.403,-1.348 -1.115,-2.366 -0.711,-1.018 -1.741,-1.833 -1.029,-0.815 -1.998,-1.287 -0.969,-0.473 -2.008,-0.653 -1.04,-0.181 -3.943,0.932" />
    <path
       id="STROKE_237b702e-4fc8-4c06-a38d-d6a2b5e42e1d"
       opacity="1"
       fill="none"
       stroke="#1c1f2a"
       stroke-width="5"
       stroke-opacity="1"
       stroke-linecap="round"
       stroke-linejoin="round"
       d="m -1784.408,1618.306 q 0.023,0.046 0.29,0.299 0.267,0.254 0.464,0.49 0.197,0.237 0.413,1.264 0.215,1.027 0.351,3.342 0.136,2.314 0.235,3.812 0.1,1.497 0.268,3.784 0.168,2.286 0.267,3.812 0.099,1.527 0.185,3.255 0.086,1.727 0.153,4.775 0.067,3.048 0.081,3.426" />
    <path
       id="STROKE_c43fe916-0337-43a1-8ab3-1359fa8b7a0a"
       opacity="1"
       fill="none"
       stroke="#1c1f2a"
       stroke-width="5"
       stroke-opacity="1"
       stroke-linecap="round"
       stroke-linejoin="round"
       d="m -1783.78,1619.265 q 0.563,-0.938 0.866,-1.373 0.302,-0.434 1.565,-1.177 1.262,-0.743 2.814,-1.273 1.551,-0.531 3.293,-0.733 1.742,-0.202 3.2,0.014 1.458,0.216 3.294,1.342 1.835,1.127 2.376,2.104 0.541,0.978 0.534,2.224 -0.01,1.246 -0.583,2.778 -0.576,1.532 -1.857,3.029 -1.282,1.498 -2.633,2.455 -1.351,0.957 -2.585,1.583 -1.234,0.625 -2.653,0.885 -1.419,0.261 -2.516,0.267 -1.096,0.01 -2.077,0.106 -0.138,0.01 2.258,1.07 2.396,1.064 5.247,2.612 2.85,1.547 5.208,3.132 2.359,1.584 5.229,4.386 2.871,2.802 2.973,2.93" />
    <path
       id="STROKE_cacbca39-1fc3-4009-b4e0-316400a553dc"
       opacity="1"
       fill="none"
       stroke="#1c1f2a"
       stroke-width="5"
       stroke-opacity="1"
       stroke-linecap="round"
       stroke-linejoin="round"
       d="m -1711.69,1620.224 q 0.028,-0.249 -0.178,-1.918 -0.206,-1.669 -0.756,-3.098 -0.55,-1.428 -1.362,-2.268 -0.812,-0.839 -1.11,-0.991 -0.299,-0.152 -0.757,-0.229 -0.459,-0.076 -1.007,0.061 -0.549,0.136 -1.613,0.806 -1.064,0.669 -2.448,2.45 -1.384,1.78 -2.107,3.325 -0.723,1.544 -0.945,2.818 -0.223,1.275 -0.069,2.292 0.154,1.017 0.332,1.463 0.177,0.446 0.796,1.2 0.62,0.754 1.471,1.299 0.852,0.544 1.7,0.862 0.849,0.317 2.323,0.599 1.474,0.282 2.801,0.685 1.328,0.404 2.928,1.214 1.601,0.81 2.712,1.691 1.111,0.88 1.952,2.063 0.842,1.183 1.241,2.371 0.4,1.187 0.453,2.214 0.053,1.026 -0.468,2.668 -0.52,1.641 -1.209,2.704 -0.688,1.063 -1.753,1.928 -1.065,0.864 -2.101,1.289 -1.035,0.426 -1.907,0.624 -0.872,0.199 -1.879,0.327 -1.006,0.128 -2.368,0.061 -1.361,-0.066 -2.912,-0.603 -1.55,-0.537 -2.851,-1.439 -1.301,-0.903 -2.198,-1.913 -0.898,-1.01 -1.504,-1.937 -0.605,-0.927 -1.017,-2.143 -0.413,-1.216 -0.391,-2.25 0.022,-1.033 0.092,-1.772" />
    <path
       id="STROKE_9448a491-e49b-421f-b67a-a3213dd8b1bc"
       opacity="1"
       fill="none"
       stroke="#1c1f2a"
       stroke-width="5"
       stroke-opacity="1"
       stroke-linecap="round"
       stroke-linejoin="round"
       d="m -1685.422,1618.669 q 0.017,-0.394 -0.177,-1.626 -0.194,-1.232 -0.671,-2.241 -0.476,-1.009 -1.138,-1.671 -0.662,-0.663 -1.261,-0.947 -0.6,-0.284 -1.257,-0.282 -0.657,0 -1.7,0.636 -1.042,0.634 -2.206,2.376 -1.163,1.741 -1.749,2.965 -0.587,1.224 -1.229,4.16 -0.641,2.936 -0.812,4.611 -0.171,1.675 -0.239,2.652 -0.067,0.976 -0.012,3.201 0.056,2.225 0.508,4.257 0.452,2.032 0.8,3.061 0.348,1.03 1.067,2.347 0.718,1.317 1.405,2.119 0.687,0.801 1.623,1.443 0.936,0.642 1.831,0.902 0.895,0.26 1.497,0.266 0.602,0.01 1.623,-0.241 1.02,-0.247 2.383,-1.362 1.363,-1.116 2.2,-2.35 0.838,-1.235 1.278,-1.945" />
    <path
       id="STROKE_c2102a8d-b22c-47f8-9097-e1bbd61d7882"
       opacity="1"
       fill="none"
       stroke="#1c1f2a"
       stroke-width="5"
       stroke-opacity="1"
       stroke-linecap="round"
       stroke-linejoin="round"
       d="m -1674.578,1614.83 q 0.035,0.149 0.01,0.574 -0.024,0.426 -0.065,1.681 -0.041,1.256 -0.033,3.031 0.01,1.776 0.084,3.957 0.076,2.18 0.377,5.531 0.3,3.351 0.716,5.757 0.417,2.407 0.787,4.196 0.371,1.79 0.065,4.946" />
    <path
       id="STROKE_ba28aebf-c698-4448-9596-7795512045eb"
       opacity="1"
       fill="none"
       stroke="#1c1f2a"
       stroke-width="5"
       stroke-opacity="1"
       stroke-linecap="round"
       stroke-linejoin="round"
       d="m -1672.646,1604.03 q -0.089,-0.12 -0.693,-0.639" />
    <path
       id="STROKE_89600f02-7d33-4c3b-84d7-f0ccd087c441"
       opacity="1"
       fill="none"
       stroke="#1c1f2a"
       stroke-width="5"
       stroke-opacity="1"
       stroke-linecap="round"
       stroke-linejoin="round"
       d="m -1663.155,1627.729 0.256,-0.088 q 0.229,-0.163 3.533,-0.665 3.305,-0.501 5.356,-0.66 2.051,-0.158 3.046,-0.35 0.995,-0.192 1.378,-0.417 0.383,-0.224 0.585,-1.716 0.201,-1.491 -0.032,-2.624 -0.234,-1.134 -0.546,-1.99 -0.311,-0.857 -1.157,-2.23 -0.847,-1.372 -1.95,-2.52 -1.103,-1.148 -1.951,-1.685 -0.848,-0.537 -1.468,-0.737 -0.621,-0.2 -1.195,-0.093 -0.575,0.106 -0.969,0.294 -0.393,0.188 -0.849,0.522 -0.456,0.334 -0.933,0.849 -0.477,0.515 -1.222,1.756 -0.746,1.24 -1.331,3.981 -0.586,2.741 -0.823,5.377 -0.237,2.636 -0.293,5.435 -0.056,2.799 0.126,4.723 0.182,1.924 0.582,3.649 0.399,1.726 0.877,2.847 0.479,1.122 0.853,1.764 0.375,0.643 1.253,1.527 0.878,0.885 1.707,1.323 0.829,0.439 1.596,0.607 0.766,0.168 2.064,-0.174 1.297,-0.342 2.621,-1.184 1.324,-0.843 2.481,-1.846 1.158,-1.003 1.609,-1.396" />
    <path
       id="STROKE_81861d86-3365-4318-bb8d-751ef3e9d95b"
       opacity="1"
       fill="none"
       stroke="#1c1f2a"
       stroke-width="5"
       stroke-opacity="1"
       stroke-linecap="round"
       stroke-linejoin="round"
       d="m -1636.749,1645.313 q 0.022,-0.139 -0.206,-1.389 -0.227,-1.251 -0.376,-2.25 -0.148,-1 -0.263,-1.984 -0.114,-0.984 -0.254,-3.313 -0.14,-2.329 -0.194,-4.085 -0.054,-1.755 -0.095,-2.988 -0.041,-1.233 -0.259,-3.972 -0.218,-2.739 -0.312,-4.72 -0.095,-1.982 0.1,-5.145 0.066,0.016 0.435,0.295 0.37,0.278 1.046,1.141 0.677,0.863 1.491,2.051 0.814,1.189 2.309,3.423 1.495,2.234 2.67,3.89 1.175,1.655 2.422,3.285 1.247,1.63 2.048,2.668 0.802,1.039 2.017,2.764 1.216,1.725 2.458,3.763 1.243,2.039 4.687,7.082 0.03,0.056 -0.135,-1.89 -0.166,-1.947 -0.411,-7.264 -0.244,-5.318 -0.282,-8.063 -0.038,-2.746 -0.093,-4.736 -0.055,-1.991 -0.058,-3.225 0,-1.234 -0.138,-6.483 l 0.016,-0.331" />
    <path
       id="STROKE_cea695d0-6b95-406d-8500-58497c85d1c3"
       opacity="1"
       fill="none"
       stroke="#1c1f2a"
       stroke-width="5"
       stroke-opacity="1"
       stroke-linecap="round"
       stroke-linejoin="round"
       d="m -1592.147,1620.215 q -0.014,-0.086 0.091,-0.328 0.105,-0.242 0.297,-1.314 0.192,-1.072 0.068,-2.498 -0.124,-1.427 -0.368,-2.172 -0.244,-0.746 -0.657,-1.515 -0.413,-0.768 -1.172,-1.405 -0.759,-0.636 -1.252,-0.878 -0.494,-0.241 -1.426,-0.327 -0.933,-0.085 -1.968,0.233 -1.036,0.319 -2.261,1.162 -1.225,0.843 -2.766,2.774 -1.541,1.931 -2.618,4.317 -1.077,2.385 -1.609,4.183 -0.532,1.798 -1.044,4.636 -0.512,2.838 -0.669,4.963 -0.156,2.125 -0.187,3.277 -0.031,1.151 0.08,3.043 0.111,1.893 0.427,3.399 0.316,1.506 0.964,2.672 0.649,1.166 1.8,2.166 1.151,1 2.237,1.539 1.087,0.539 2.381,0.612 1.294,0.074 2.583,-0.255 1.288,-0.329 2.809,-1.415 1.52,-1.085 2.726,-2.687 1.205,-1.602 1.635,-2.208" />
    <path
       id="STROKE_476f5215-e206-4ff4-bb52-872a0a74ab92"
       opacity="1"
       fill="none"
       stroke="#1c1f2a"
       stroke-width="5"
       stroke-opacity="1"
       stroke-linecap="round"
       stroke-linejoin="round"
       d="m -1581.372,1628.244 0.199,0.081 q 0.348,0.093 1.1,-0.028 0.753,-0.122 2.067,-0.359 1.314,-0.238 2.616,-0.507 1.303,-0.269 3.817,-0.908 2.514,-0.64 2.834,-0.852 0.319,-0.212 0.538,-0.556 0.218,-0.345 0.269,-0.524 0.052,-0.179 -0.021,-1.729 -0.073,-1.551 -0.329,-3.211 -0.256,-1.66 -0.755,-3.028 -0.498,-1.369 -0.831,-1.995 -0.334,-0.627 -0.969,-1.377 -0.636,-0.75 -1.662,-1.357 -1.026,-0.608 -1.671,-0.745 -0.645,-0.137 -1.599,0.186 -0.953,0.322 -2.367,1.99 -1.414,1.669 -2.458,4.271 -1.043,2.603 -1.495,4.868 -0.452,2.265 -0.64,3.544 -0.189,1.279 -0.441,4.247 -0.252,2.967 -0.166,5.568 0.086,2.601 0.454,4.475 0.368,1.873 0.934,3.187 0.567,1.314 1.277,2.187 0.71,0.872 1.735,1.551 1.024,0.678 2.118,0.931 1.093,0.253 2.292,0.153 1.199,-0.1 2.735,-0.829 1.536,-0.729 3.175,-2.43 1.64,-1.701 2.424,-3.19 0.784,-1.488 1.046,-2.133" />
    <path
       id="STROKE_96b3e741-581c-44f4-ab33-9c8b33e72630"
       opacity="1"
       fill="none"
       stroke="#1c1f2a"
       stroke-width="5"
       stroke-opacity="1"
       stroke-linecap="round"
       stroke-linejoin="round"
       d="m -2298.379,1690.824 q 0.014,-0.192 -0.138,-1.487 -0.152,-1.294 -0.668,-2.545 -0.516,-1.251 -1.457,-2.162 -0.942,-0.91 -1.997,-1.347 -1.056,-0.437 -2.057,-0.3 -1.002,0.137 -1.673,0.399 -0.671,0.262 -2.214,1.418 -1.542,1.156 -2.833,2.699 -1.289,1.543 -2.085,2.843 -0.795,1.301 -1.666,3.111 -0.87,1.811 -1.373,3.264 -0.504,1.453 -1.249,4.799 -0.744,3.346 -1.009,6.439 -0.265,3.094 -0.193,5.154 0.072,2.06 0.398,3.748 0.326,1.687 0.941,3.098 0.614,1.412 1.77,2.786 1.156,1.375 2.59,2.308 1.435,0.932 2.492,1.349 1.057,0.417 2.083,0.529 1.027,0.112 2.555,-0.196 1.528,-0.308 3.529,-1.735 2.001,-1.427 4.518,-4.153" />
    <path
       id="STROKE_2215e335-2cd3-492e-982a-0e961b1a7eca"
       opacity="1"
       fill="none"
       stroke="#1c1f2a"
       stroke-width="5"
       stroke-opacity="1"
       stroke-linecap="round"
       stroke-linejoin="round"
       d="m -2287.468,1693.814 q -0.212,0.286 -0.954,1.242 -0.742,0.957 -1.495,2.575 -0.754,1.617 -1.186,4.764 -0.431,3.146 -0.488,5.201 -0.057,2.054 0.13,4.141 0.187,2.087 0.427,3.249 0.241,1.162 0.536,2.052 0.294,0.891 0.945,1.988 0.65,1.097 1.568,1.863 0.918,0.766 1.975,1.155 1.058,0.389 2.343,0.232 1.286,-0.158 2.036,-0.478 0.749,-0.32 1.787,-1.131 1.039,-0.81 2.099,-2.349 1.061,-1.54 1.726,-3.429 0.665,-1.889 0.871,-4.735 0.206,-2.847 0.044,-4.709 -0.163,-1.862 -0.459,-3.257 -0.297,-1.395 -1.472,-3.448 -1.174,-2.053 -2.633,-3.755 -1.458,-1.701 -2.254,-2.393 -0.795,-0.692 -1.281,-0.98 -0.486,-0.288 -1.294,-0.307 -0.807,-0.019 -1.581,0.116" />
    <path
       id="STROKE_fc9bb083-0723-4d0f-a2bf-418e81a11d8d"
       opacity="1"
       fill="none"
       stroke="#1c1f2a"
       stroke-width="5"
       stroke-opacity="1"
       stroke-linecap="round"
       stroke-linejoin="round"
       d="m -2266.636,1691.49 q -0.36,0.399 -0.229,4.917 0.131,4.519 0.513,7.878 0.383,3.359 0.581,7.033 0.198,3.673 0.316,5.7 0.119,2.028 0.372,3.062 0.253,1.035 0.591,1.584 0.338,0.55 0.844,0.916 0.505,0.367 3.613,-0.244 3.108,-0.612 5.687,-1.419 2.58,-0.807 3.427,-1.09" />
    <path
       id="STROKE_ea5f7692-5b5d-4de2-bc66-24163962b5b4"
       opacity="1"
       fill="none"
       stroke="#1c1f2a"
       stroke-width="5"
       stroke-opacity="1"
       stroke-linecap="round"
       stroke-linejoin="round"
       d="m -2245.574,1694.975 q 0.021,0.069 -0.034,0.058 0.01,0.502 -0.034,0.526 -0.039,0.024 0.451,4.951 0.49,4.927 0.933,7.861 0.444,2.933 0.782,5.525 0.338,2.593 0.654,4.428 0.315,1.836 1.506,4.41 0.289,0.118 1.853,-0.039 1.565,-0.157 4.075,-0.394 2.51,-0.238 3.772,-0.265 1.261,-0.027 2.057,-0.051" />
    <path
       id="STROKE_ac34639d-9b1e-4a47-8d1b-d2a8c454fa8b"
       opacity="1"
       fill="none"
       stroke="#1c1f2a"
       stroke-width="5"
       stroke-opacity="1"
       stroke-linecap="round"
       stroke-linejoin="round"
       d="m -2220.578,1723.049 -0.049,-0.08 q -0.089,-0.1 -0.079,-6.521 0.011,-6.422 0.325,-10.774 0.313,-4.352 0.641,-6.585 0.329,-2.232 0.85,-3.802 0.521,-1.57 1.015,-2.413 0.494,-0.843 1.003,-1.312 0.508,-0.47 1.085,-0.742 0.578,-0.272 1.29,-0.296 0.713,-0.024 1.978,0.512 1.265,0.537 2.507,1.994 1.242,1.456 2.461,4.311 1.218,2.854 1.723,4.487 0.505,1.634 0.975,3.646 0.47,2.011 0.685,3.15 0.215,1.139 0.497,2.708 0.282,1.57 0.787,6.143 0.505,4.574 0.547,5.15" />
    <path
       id="STROKE_0b9df2ae-2f91-4148-9e45-85ea7771e73c"
       opacity="1"
       fill="none"
       stroke="#1c1f2a"
       stroke-width="5"
       stroke-opacity="1"
       stroke-linecap="round"
       stroke-linejoin="round"
       d="m -2218.592,1709.86 q 0.821,-0.133 2.494,-0.383 1.672,-0.25 4.127,-0.689 2.455,-0.439 3.896,-0.843 1.442,-0.403 1.971,-0.573" />
    <path
       id="STROKE_cd822cef-e481-49a8-be96-2e4412d03130"
       opacity="1"
       fill="none"
       stroke="#1c1f2a"
       stroke-width="5"
       stroke-opacity="1"
       stroke-linecap="round"
       stroke-linejoin="round"
       d="m -2194.062,1692.562 q -0.038,0.118 0.298,4.115 0.335,3.996 0.503,6.296 0.168,2.3 0.259,3.879 0.091,1.578 0.348,8.473 0.258,6.895 0.291,7.36" />
    <path
       id="STROKE_bdd706f3-bbaa-45d2-97db-a467ca5c85e7"
       opacity="1"
       fill="none"
       stroke="#1c1f2a"
       stroke-width="5"
       stroke-opacity="1"
       stroke-linecap="round"
       stroke-linejoin="round"
       d="m -2193.006,1693.513 0.233,-0.55 q 0.353,-0.441 0.421,-0.465 0.068,-0.023 1.911,-0.881 1.842,-0.857 3.365,-1.173 1.523,-0.317 2.869,-0.203 1.347,0.114 2.557,0.615 1.211,0.502 1.837,0.913 0.625,0.411 1.237,1.111 0.611,0.7 0.963,1.826 0.352,1.127 0.161,2.582 -0.192,1.455 -0.895,2.913 -0.703,1.458 -3.124,3.61 -2.42,2.153 -3.949,3.195 -1.529,1.043 -2.429,1.618 -0.9,0.575 -1.361,0.889 -0.461,0.314 -0.79,0.542 0.127,-0.066 0.32,-0.101 0.193,-0.035 1.399,-0.337 1.205,-0.303 2.782,-0.56 1.577,-0.256 3.549,-0.277 1.972,-0.021 3.254,0.179 1.281,0.2 2.583,0.687 1.302,0.487 2.067,1.023 0.765,0.535 1.378,1.452 0.613,0.917 0.802,1.957 0.19,1.041 -0.195,2.117 -0.385,1.076 -0.656,1.604 -0.272,0.528 -1.532,1.815 -1.26,1.287 -2.282,1.956 -1.022,0.669 -1.496,0.94 -0.474,0.271 -2.582,0.876 -2.108,0.606 -4.273,0.732 -2.165,0.127 -4.618,-0.038 -2.454,-0.165 -3.101,-0.227" />
    <path
       id="STROKE_e2a626c6-eade-4828-8229-2ec93b1743ed"
       opacity="1"
       fill="none"
       stroke="#1c1f2a"
       stroke-width="5"
       stroke-opacity="1"
       stroke-linecap="round"
       stroke-linejoin="round"
       d="m -2162.733,1691.352 q 0,0.124 -0.818,2.224 -0.819,2.099 -1.438,5.612 -0.62,3.514 -0.647,6.889 -0.027,3.374 0.098,5.057 0.125,1.684 0.25,2.726 0.126,1.043 0.457,2.515 0.331,1.473 0.762,2.43 0.432,0.957 1.491,2.01 1.058,1.052 2.157,1.458 1.098,0.405 2.515,0.099 1.417,-0.305 2.689,-1.108 1.272,-0.803 2.162,-1.804 0.889,-1.001 1.566,-2.23 0.677,-1.23 1.094,-4.702 0.418,-3.471 0.464,-5.377 0.046,-1.905 -0.017,-3.299 -0.062,-1.394 -0.266,-2.806 -0.203,-1.412 -0.619,-2.857 -0.416,-1.445 -0.979,-2.661 -0.563,-1.216 -1.631,-2.525 -1.067,-1.31 -2.044,-2.067 -0.977,-0.757 -1.853,-1.071 -0.877,-0.315 -5.052,0.915" />
    <path
       id="STROKE_f962423b-ad07-4ea4-9395-230582d79ffb"
       opacity="1"
       fill="none"
       stroke="#1c1f2a"
       stroke-width="5"
       stroke-opacity="1"
       stroke-linecap="round"
       stroke-linejoin="round"
       d="m -2141.651,1691.257 q 0.128,0.461 0.131,0.637 0,0.175 0.113,2.15 0.109,1.975 0.804,13.497 0.695,11.522 0.75,12.873 0.056,1.35 0.11,1.992" />
    <path
       id="STROKE_0b142aea-1c95-4247-b04b-a5106dfc6458"
       opacity="1"
       fill="none"
       stroke="#1c1f2a"
       stroke-width="5"
       stroke-opacity="1"
       stroke-linecap="round"
       stroke-linejoin="round"
       d="m -2140.21,1690.311 q 3.833,-1.778 5.791,-2.284 1.958,-0.505 3.659,-0.57 1.702,-0.064 3.251,0.404 1.549,0.469 2.517,1.111 0.967,0.643 1.567,1.667 0.599,1.024 0.797,2.356 0.198,1.331 -0.129,2.862 -0.327,1.531 -1.124,2.943 -0.797,1.412 -3.014,3.088 -2.216,1.675 -3.609,2.459 -1.393,0.783 -2.581,1.299 -1.188,0.517 -2.431,0.768 -1.243,0.251 -3.457,0.343 0.044,-0.016 2.974,1.895 2.93,1.91 6.405,4.634 3.476,2.724 4.969,4.198 1.492,1.474 1.664,1.67" />
    <path
       id="STROKE_a3f482ad-845a-4be9-b662-440aba8641e1"
       opacity="1"
       fill="none"
       stroke="#1c1f2a"
       stroke-width="5"
       stroke-opacity="1"
       stroke-linecap="round"
       stroke-linejoin="round"
       d="m -2113.793,1721.162 q 0.01,-0.093 -0.022,-0.139 -0.027,-0.045 -0.076,-0.504 -0.048,-0.459 -0.068,-1.995 -0.02,-1.536 0,-2.425 0.025,-0.89 0.276,-5.727 0.251,-4.838 0.342,-7.52 0.091,-2.682 0.481,-4.61 0.389,-1.928 1.024,-3.306 0.635,-1.379 1.144,-2.023 0.51,-0.644 1.203,-1.064 0.692,-0.42 1.293,-0.59 0.6,-0.17 1.506,-0.116 0.906,0.054 2.182,0.6 1.276,0.546 2.526,1.76 1.249,1.214 2.648,3.897 1.398,2.683 2.083,4.618 0.685,1.936 1.094,3.75 0.409,1.814 0.738,4.131 0.33,2.316 0.689,5.589 0.36,3.273 0.8,7.25" />
    <path
       id="STROKE_a13e6f7d-eb0f-411e-a85b-ea4103bc6d91"
       opacity="1"
       fill="none"
       stroke="#1c1f2a"
       stroke-width="5"
       stroke-opacity="1"
       stroke-linecap="round"
       stroke-linejoin="round"
       d="m -2110.806,1709.686 q 0.232,-0.12 0.27,-0.156 0.038,-0.036 0.945,-0.202 0.908,-0.166 2.514,-0.437 1.606,-0.271 3.101,-0.564 1.496,-0.293 4.442,-0.834 2.946,-0.541 3.274,-0.609" />
    <path
       id="STROKE_45d97e81-bc37-4211-83ab-27c92b7f007b"
       opacity="1"
       fill="none"
       stroke="#1c1f2a"
       stroke-width="5"
       stroke-opacity="1"
       stroke-linecap="round"
       stroke-linejoin="round"
       d="m -2084.002,1690.817 q 0.105,0.106 0.368,0.428 0.046,0.163 0.426,2.286 0.379,2.123 0.794,5.214 0.415,3.092 0.664,4.747 0.249,1.655 0.432,2.691 0.183,1.037 0.819,4.294 0.635,3.257 0.983,5.778 0.349,2.52 0.513,4.128 0.163,1.608 0.483,2.611 l 0.364,0.486" />
    <path
       id="STROKE_1f339b44-71e1-47f9-8c4a-83cd85f7f2f0"
       opacity="1"
       fill="none"
       stroke="#1c1f2a"
       stroke-width="5"
       stroke-opacity="1"
       stroke-linecap="round"
       stroke-linejoin="round"
       d="m -2093.853,1689.783 q 0.343,0.156 6.11,-0.632 5.766,-0.788 9.955,-1.438 4.19,-0.65 6.215,-0.776 2.026,-0.127 3.03,-0.18" />
    <path
       id="STROKE_2102e008-8eda-4bd1-811e-786e2104248d"
       opacity="1"
       fill="none"
       stroke="#1c1f2a"
       stroke-width="5"
       stroke-opacity="1"
       stroke-linecap="round"
       stroke-linejoin="round"
       d="m -2066.758,1696.96 q 0.378,0.722 0.9,4.799 0.522,4.076 1.369,9.104 0.847,5.028 1.779,10.747" />
    <circle
       id="STROKE_f9ea92e9-6bf6-42e4-a3ea-0fd07e0f57b1"
       opacity="1"
       fill="#1c1f2a"
       stroke="#1c1f2a"
       stroke-width="0.1"
       stroke-opacity="1"
       fill-opacity="1"
       cx="-2066.2959"
       cy="1672.837"
       r="2.5" />
    <path
       id="STROKE_14a1e375-edd3-4517-9e0f-6812193f6b04"
       opacity="1"
       fill="none"
       stroke="#1c1f2a"
       stroke-width="5"
       stroke-opacity="1"
       stroke-linecap="round"
       stroke-linejoin="round"
       d="m -2053.19,1693.158 q -0.481,0.213 -0.775,0.449 -0.295,0.237 -0.828,1.088 -0.533,0.851 -0.899,2.689 -0.366,1.838 -0.488,2.94 -0.121,1.102 -0.094,3.837 0.027,2.735 0.188,4.295 0.161,1.559 0.286,2.371 0.124,0.812 0.267,1.541 0.142,0.729 0.389,1.728 0.247,1 0.546,1.965 0.298,0.965 0.931,2.299 0.632,1.335 1.411,2.314 0.779,0.978 1.885,1.75 1.106,0.772 2.36,1.145 1.255,0.374 2.927,0.149 1.672,-0.225 2.969,-0.825 1.297,-0.6 2.527,-1.883 1.231,-1.282 1.91,-2.59 0.678,-1.308 1.09,-2.696 0.411,-1.389 0.68,-3.824 0.269,-2.435 0.039,-5.119 -0.229,-2.685 -0.604,-4.274 -0.374,-1.589 -1.217,-3.276 -0.843,-1.688 -1.428,-2.552 -0.586,-0.863 -1.877,-2.139 -1.292,-1.276 -2.695,-2.055 -1.403,-0.779 -2.62,-1.045 -1.216,-0.266 -2.255,-0.226 -1.039,0.039 -2.196,0.673 -1.158,0.633 -1.931,1.193" />
    <path
       id="STROKE_252d9a77-a257-4721-b328-913736114533"
       opacity="1"
       fill="none"
       stroke="#1c1f2a"
       stroke-width="5"
       stroke-opacity="1"
       stroke-linecap="round"
       stroke-linejoin="round"
       d="m -2026.795,1722.208 q 0.081,-0.187 -0.034,-0.998 -0.115,-0.811 -0.638,-4.014 -0.523,-3.203 -1.283,-7.733 -0.76,-4.531 -1.108,-8.854 -0.347,-4.323 -0.412,-7.148 0.11,0.092 2.89,3.827 2.78,3.736 5.456,6.867 2.675,3.13 4.016,4.705 1.341,1.575 3.887,4.319 2.547,2.743 4.044,4.147 1.497,1.404 2.976,2.5 0.016,0.031 0.062,-0.216 0.045,-0.247 -0.082,-1.736 -0.128,-1.489 -0.359,-3.111 -0.23,-1.621 -0.631,-6.017 -0.401,-4.395 -0.489,-6.977 -0.088,-2.582 -0.448,-6.783 -0.36,-4.202 -0.578,-8.536 l 0.02,-0.259" />
    <path
       id="STROKE_4f3f8f73-8213-4641-8bfd-d7ee82ab9309"
       opacity="1"
       fill="none"
       stroke="#1c1f2a"
       stroke-width="5"
       stroke-opacity="1"
       stroke-linecap="round"
       stroke-linejoin="round"
       d="m -1953.199,1724.429 -0.026,-0.102 q 0.19,-0.344 -0.022,-7.786 -0.212,-7.441 -0.501,-11.534 -0.288,-4.093 -0.325,-5.974 -0.037,-1.881 -0.034,-2.861 0,-0.979 0.025,-1.696 0.023,-0.718 0.197,-2.045 0.017,-0.06 0.945,1.828 0.928,1.888 2.259,4.532 1.33,2.644 2.285,4.115 0.956,1.472 1.771,2.55 0.815,1.078 1.2,1.57 0.385,0.492 2.154,2.47 1.77,1.978 3.106,3.489 1.336,1.512 3.779,4.078 0.115,-0.121 0.285,-0.303 0.171,-0.183 0.818,-3.066 0.648,-2.883 1.388,-8.419 0.741,-5.536 1.155,-8.802 0.414,-3.265 1.966,-7.137 0.319,-0.16 1.831,5.116 1.511,5.276 3.158,11.207 1.647,5.931 1.913,6.911 0.266,0.98 0.898,3.059 0.631,2.078 1.643,3.86 1.012,1.783 1.214,2.099" />
    <path
       id="STROKE_42f5674e-6c53-4b1e-b932-92185121331c"
       opacity="1"
       fill="none"
       stroke="#1c1f2a"
       stroke-width="5"
       stroke-opacity="1"
       stroke-linecap="round"
       stroke-linejoin="round"
       d="m -1911.188,1719.886 q -0.069,-0.114 -0.215,-0.454 -0.145,-0.341 -0.276,-0.828 -0.132,-0.487 -0.234,-0.884 -0.103,-0.396 -0.568,-3.406 -0.464,-3.01 -0.715,-6.519 -0.251,-3.509 -0.21,-5.687 0.042,-2.178 0.311,-3.603 0.269,-1.426 0.889,-3.005 0.621,-1.579 1.273,-2.465 0.651,-0.886 1.477,-1.364 0.827,-0.477 1.76,-0.41 0.933,0.066 1.861,0.561 0.927,0.496 2.014,1.829 1.087,1.334 2.865,5.185 1.778,3.85 3.198,7.639 1.419,3.789 2.062,5.641 0.643,1.853 1.184,3.39 0.542,1.537 1.006,2.858 0.464,1.32 1.293,4.372 l 0.096,0.611" />
    <path
       id="STROKE_bbf6a143-355b-4095-9390-e53d631a8215"
       opacity="1"
       fill="none"
       stroke="#1c1f2a"
       stroke-width="5"
       stroke-opacity="1"
       stroke-linecap="round"
       stroke-linejoin="round"
       d="m -1910.746,1711.123 q 0.094,-0.034 2.019,-0.251 1.925,-0.217 3.384,-0.383 1.458,-0.167 2.443,-0.298 0.984,-0.131 2.13,-0.304 1.146,-0.173 1.741,-0.274" />
    <path
       id="STROKE_14a26191-a839-4492-a517-a995bf76abc9"
       opacity="1"
       fill="none"
       stroke="#1c1f2a"
       stroke-width="5"
       stroke-opacity="1"
       stroke-linecap="round"
       stroke-linejoin="round"
       d="m -1886.567,1690.716 q 0.092,0.127 0.973,5.769 0.882,5.641 1.463,9.702 0.58,4.059 0.92,5.898 0.34,1.838 0.728,3.62 0.389,1.781 0.64,3.138 0.251,1.357 0.421,2.893 l 0.119,0.658" />
    <path
       id="STROKE_f90d43a3-b963-4fa1-bfa9-47ce1418e3dd"
       opacity="1"
       fill="none"
       stroke="#1c1f2a"
       stroke-width="5"
       stroke-opacity="1"
       stroke-linecap="round"
       stroke-linejoin="round"
       d="m -1885.021,1690.032 q 0.122,0 1.799,0.15 1.677,0.154 3.344,0.631 1.667,0.477 3.549,1.347 1.881,0.87 3.645,2.075 1.763,1.206 3.027,2.687 1.263,1.482 2.148,3.372 0.886,1.89 1.295,3.78 0.409,1.89 0.311,3.626 -0.099,1.737 -0.432,3.084 -0.334,1.348 -1.912,4.648 -1.578,3.301 -2.858,4.596 -1.28,1.295 -5.067,2.07 -3.786,0.776 -4.524,0.856" />
    <path
       id="STROKE_07bfb358-70b3-4c37-9270-01d06a7b5d10"
       opacity="1"
       fill="none"
       stroke="#1c1f2a"
       stroke-width="5"
       stroke-opacity="1"
       stroke-linecap="round"
       stroke-linejoin="round"
       d="m -1857.495,1704.504 q 0.052,-0.016 2.997,-0.429 2.945,-0.412 5.313,-0.675 2.369,-0.263 3.372,-0.546 1.004,-0.283 1.317,-0.427 0.313,-0.144 0.459,-0.262 0.146,-0.119 0.407,-0.74 0.261,-0.62 0.323,-1.648 0.062,-1.027 -0.059,-1.793 -0.121,-0.765 -0.19,-1.092 -0.069,-0.326 -0.569,-1.658 -0.499,-1.332 -1.386,-2.56 -0.888,-1.227 -1.274,-1.568 -0.387,-0.34 -1.046,-0.707 -0.659,-0.367 -1.281,-0.524 -0.621,-0.157 -1.577,0.091 -0.956,0.248 -2.002,1.013 -1.046,0.764 -1.906,2.104 -0.86,1.339 -1.315,2.658 -0.454,1.318 -0.828,4.156 -0.375,2.839 -0.387,6.256 -0.013,3.417 0.065,5.142 0.079,1.726 0.221,3.174 0.142,1.448 0.546,3.075 0.404,1.627 1.155,2.831 0.751,1.204 2.141,2.197 1.39,0.993 2.544,1.474 1.153,0.481 2.59,0.602 1.437,0.122 2.991,-0.226 1.555,-0.348 3.243,-1.327 1.689,-0.979 4.095,-4.116" />
    <path
       id="STROKE_88732bd6-1b78-4d6e-bc2c-3008e2cf3619"
       opacity="1"
       fill="none"
       stroke="#1c1f2a"
       stroke-width="5"
       stroke-opacity="1"
       stroke-linecap="round"
       stroke-linejoin="round"
       d="m -1806.233,1692.731 0.209,0.118 q 0.184,0.379 1.08,5.327 0.897,4.949 1.227,9.073 0.33,4.124 0.419,5.967 0.09,1.843 0.274,3.898 0.183,2.054 0.551,3.457 0.369,1.403 0.784,2.082 0.415,0.679 0.874,0.975 0.46,0.296 0.89,0.34 0.43,0.044 1.006,-0.033 0.576,-0.076 1.925,-0.46 1.348,-0.383 3.463,-0.902 2.115,-0.518 4.055,-0.961 1.94,-0.442 2.849,-0.777 0.91,-0.335 1.601,-0.616" />
    <path
       id="STROKE_63faf34f-442c-4cdb-9fca-9505eafe2e28"
       opacity="1"
       fill="none"
       stroke="#1c1f2a"
       stroke-width="5"
       stroke-opacity="1"
       stroke-linecap="round"
       stroke-linejoin="round"
       d="m -1801.628,1706.738 0.085,-0.102 q 0.192,0.083 6.599,-1.531 6.407,-1.615 7.165,-1.822" />
    <path
       id="STROKE_6d2743de-75d2-4473-9100-6f5402882546"
       opacity="1"
       fill="none"
       stroke="#1c1f2a"
       stroke-width="5"
       stroke-opacity="1"
       stroke-linecap="round"
       stroke-linejoin="round"
       d="m -1806.809,1691.567 q 3.207,-0.491 4.432,-0.696 1.225,-0.205 1.814,-0.319 0.589,-0.113 2.177,-0.457 1.589,-0.344 5.026,-1.22 3.438,-0.878 4.296,-1.097" />
    <path
       id="STROKE_43c2be21-45d5-4fa0-a9cd-a2a20d3f4848"
       opacity="1"
       fill="none"
       stroke="#1c1f2a"
       stroke-width="5"
       stroke-opacity="1"
       stroke-linecap="round"
       stroke-linejoin="round"
       d="m -1777.458,1719.179 q 0.021,0.111 0.284,1.12 0.035,0.126 -0.304,-2.252 -0.34,-2.377 -0.496,-5.23 -0.156,-2.852 -0.127,-4.778 0.029,-1.925 0.131,-4.017 0.102,-2.091 0.407,-4.225 0.304,-2.133 1.086,-4.18 0.783,-2.047 1.437,-3.093 0.653,-1.046 1.567,-1.63 0.914,-0.584 1.552,-0.603 0.639,-0.019 1.571,0.477 0.932,0.495 2.72,3.471 1.789,2.975 3.09,6.124 1.3,3.148 2.102,5.893 0.802,2.745 1.163,4.681 0.361,1.935 0.522,3.895 0.161,1.96 0.387,4.941" />
    <path
       id="STROKE_cc2a53e7-7372-4061-b25b-2917afdc51ae"
       opacity="1"
       fill="none"
       stroke="#1c1f2a"
       stroke-width="5"
       stroke-opacity="1"
       stroke-linecap="round"
       stroke-linejoin="round"
       d="m -1775.206,1709.009 q 0.581,-0.333 0.665,-0.319 0.084,0.014 5.003,-0.893 4.919,-0.907 5.848,-1.094" />
    <path
       id="STROKE_5adcd4d0-ba3d-44a8-bcbf-90e312ba7b82"
       opacity="1"
       fill="none"
       stroke="#1c1f2a"
       stroke-width="5"
       stroke-opacity="1"
       stroke-linecap="round"
       stroke-linejoin="round"
       d="m -1741.361,1692.117 q -0.119,-0.328 -0.594,-1.312 -0.475,-0.985 -1.168,-1.633 -0.693,-0.647 -1.308,-0.889 -0.615,-0.242 -1.511,-0.175 -0.896,0.066 -1.517,0.306 -0.622,0.24 -1.402,0.684 -0.78,0.445 -2.147,1.648 -1.367,1.203 -2.307,2.66 -0.941,1.457 -1.397,2.746 -0.456,1.29 -0.488,2.527 -0.032,1.237 0.282,2.165 0.315,0.928 0.725,1.573 0.411,0.646 1.349,1.473 0.938,0.828 2.346,1.527 1.408,0.699 2.96,0.744 1.552,0.045 3.016,-0.467 1.464,-0.511 2.707,-0.883 1.242,-0.371 2.097,-0.354 0.855,0.017 1.799,0.377 0.944,0.361 1.727,1.118 0.783,0.758 1.277,1.84 0.493,1.082 0.667,2.098 0.174,1.016 -0.224,2.464 -0.398,1.447 -0.851,2.266 -0.453,0.82 -1.226,1.702 -0.772,0.882 -2.328,1.884 -1.557,1.003 -2.77,1.466 -1.214,0.463 -2.364,0.655 -1.15,0.191 -2.334,0 -1.184,-0.189 -2.165,-0.962 -0.98,-0.773 -1.882,-2.661" />
    <path
       id="STROKE_ad3e99ca-8ab2-462f-8910-2cff35be4da3"
       opacity="1"
       fill="none"
       stroke="#1c1f2a"
       stroke-width="5"
       stroke-opacity="1"
       stroke-linecap="round"
       stroke-linejoin="round"
       d="m -1732.598,1688.043 -0.089,0.127 q -0.179,0.279 -0.087,3.218 0.091,2.939 0.632,5.263 0.542,2.324 1.303,4.093 0.761,1.769 1.452,2.714 0.691,0.944 1.672,1.636 0.982,0.692 2.014,0.945 1.033,0.254 2.036,0.098 1.003,-0.156 2.12,-0.785 1.116,-0.629 2.318,-2.174 1.203,-1.545 1.699,-2.596 0.496,-1.052 0.864,-2.013 0.367,-0.961 0.668,-3.17 0.301,-2.208 0.276,-3.58 -0.025,-1.372 -0.231,-2.372 -0.206,-1.001 -0.588,-1.683 l -0.437,-0.48" />
    <path
       id="STROKE_801b3946-ad69-42ed-ac02-801b2970de2b"
       opacity="1"
       fill="none"
       stroke="#1c1f2a"
       stroke-width="5"
       stroke-opacity="1"
       stroke-linecap="round"
       stroke-linejoin="round"
       d="m -1723.99,1708.233 -0.063,0.135 q -0.036,0.538 -0.01,1.179 0.03,0.642 0.399,3.967 0.369,3.325 0.525,5.37 0.155,2.046 0.11,2.697 -0.044,0.652 -0.116,1.394" />
    <path
       id="STROKE_0a9c84da-140e-4072-b354-3f6651952f8e"
       opacity="1"
       fill="none"
       stroke="#1c1f2a"
       stroke-width="5"
       stroke-opacity="1"
       stroke-linecap="round"
       stroke-linejoin="round"
       d="m -1543.839,1630.021 q 0.212,-0.095 2.461,-0.469 2.249,-0.375 18.044,-1.106 l 1.057,-0.281" />
    <path
       d="m -1711.42,1720.2271 q -0.089,-0.12 -0.693,-0.639"
       stroke-linejoin="round"
       stroke-linecap="round"
       stroke-opacity="1"
       stroke-width="5"
       stroke="#1c1f2a"
       fill="none"
       opacity="1"
       id="STROKE_ba28aebf-c698-4448-9596-7795512045eb-3" />
  </g>
  <rect
     style="fill:none;fill-opacity:0.2;stroke:#000000;stroke-width:2.43582;stroke-miterlimit:10;stroke-dasharray:none;stroke-opacity:1"
     id="rect582"
     width="995.48126"
     height="150.68114"
     x="-2493.5972"
     y="1591.7019"
     ry="10.118321"
     inkscape:label="border" />
</svg>
