<?xml version="1.0" encoding="UTF-8" standalone="no"?>
<svg
   version="1.1"
   viewBox="0 0 632.92999 272.41125"
   width="632.92999"
   height="272.41125"
   id="svg982"
   sodipodi:docname="myHIFIS_main.svg"
   inkscape:export-filename="myHIFIS.png"
   inkscape:export-xdpi="96"
   inkscape:export-ydpi="96"
   inkscape:version="1.2.1 (9c6d41e410, 2022-07-14)"
   xmlns:inkscape="http://www.inkscape.org/namespaces/inkscape"
   xmlns:sodipodi="http://sodipodi.sourceforge.net/DTD/sodipodi-0.dtd"
   xmlns="http://www.w3.org/2000/svg"
   xmlns:svg="http://www.w3.org/2000/svg">
  <sodipodi:namedview
     id="namedview984"
     pagecolor="#ffffff"
     bordercolor="#666666"
     borderopacity="1.0"
     inkscape:showpageshadow="2"
     inkscape:pageopacity="0.0"
     inkscape:pagecheckerboard="0"
     inkscape:deskcolor="#d1d1d1"
     showgrid="false"
     inkscape:zoom="1.1588694"
     inkscape:cx="-116.92431"
     inkscape:cy="251.53827"
     inkscape:window-width="1920"
     inkscape:window-height="1006"
     inkscape:window-x="0"
     inkscape:window-y="0"
     inkscape:window-maximized="1"
     inkscape:current-layer="svg982" />
  <!-- svg-source:excalidraw -->
  <defs
     id="defs840">
    <rect
       x="-87.835213"
       y="345.23001"
       width="845.15863"
       height="376.14005"
       id="rect1306" />
    <style
       id="style838">
      @font-face {
        font-family: &quot;Virgil&quot;;
        src: url(&quot;https://excalidraw.com/Virgil.woff2&quot;);
      }
      @font-face {
        font-family: &quot;Cascadia&quot;;
        src: url(&quot;https://excalidraw.com/Cascadia.woff2&quot;);
      }
    </style>
  </defs>
  <g
     stroke-linecap="round"
     transform="matrix(1.0004363,0,0,0.70512832,192.1452,2.3989465)"
     id="g846">
    <path
       d="m 0.56,-2.05 253.59,2.72 -5.1,166.11 -248.61,-3.7"
       stroke="none"
       stroke-width="0"
       fill="#0064aa"
       id="path842" />
    <path
       d="m 2.36,0.84 c 83.43,-5.13 177.3,-5.56 251.05,2.35 M -0.6,-0.74 c 58.56,5.61 113.78,4.1 252.03,-0.31 m 3.48,0.69 c -3.69,54.99 -2.47,117.4 -4.08,165.56 m 1.23,-165.43 c -1.18,51.01 0.14,102.31 1.57,162.67 m -0.58,0.34 c -69.38,0.79 -143.15,2.72 -254.66,-1.7 m 253.64,3.44 C 156.69,162.1 62.16,160.91 1.6,163.23 m 1.99,-3.08 C 0.6,114.3 3.32,70.71 -3.72,-2.13 M 1.37,162.15 C 3.71,123.51 3.54,88.41 -0.38,1.22"
       stroke="#000000"
       stroke-width="1"
       fill="none"
       id="path844" />
  </g>
  <g
     transform="translate(244.58785,29.683188)"
     id="g850">
    <g
       aria-label="HIFIS"
       id="text848"
       style="font-size:51.6522px;font-family:'Virgil 3 YOFF';white-space:pre;fill:#ffffff">
      <path
         d="m 18.439835,36.186082 c 0.516522,2.479306 0.258261,4.803655 0.619826,7.489569 0.309914,2.58261 1.084697,4.906959 2.634262,6.81809 h 0.309914 c 0.464869,-0.206609 1.084696,-0.154956 1.291305,-0.671478 0.774783,-2.376001 0.206608,-5.113568 0,-7.74783 0.154956,-3.770611 0.05165,-8.2127 0.929739,-11.725049 0,-0.154957 0.05165,-0.258261 0.05165,-0.361566 1.136349,-3.512349 1.291305,-7.747829 1.962784,-11.466788 0.46487,-1.394609 0.361565,-2.58261 0.361565,-3.925567 -0.671478,-1.291305 -1.446261,-1.911131 -2.944175,-1.962783 -2.530958,1.084696 -2.427653,4.183828 -2.324349,6.404872 0.154957,3.099132 -0.619826,7.334612 -1.291305,10.278788 -0.103304,0.516522 -0.568174,1.033044 -0.981392,1.291305 -0.154956,0.154956 -0.826435,0.309913 -0.981391,0.361565 -1.497914,-0.103304 -2.944176,0.05165 -4.44209,0.309913 -1.65287,-0.258261 -3.047479,0.361566 -4.7003496,0.309914 -0.051652,0 -0.3099132,-0.258261 -0.3099132,-0.309914 -0.3099132,-2.221044 0.4132176,-5.423481 0.6198264,-7.851134 0.1033044,-0.929739 0.051652,-2.427653 0.051652,-3.409045 0,-1.704523 0,-2.944175 -0.3615654,-4.442089 C 8.3676562,14.75042 7.28296,14.388854 6.3532205,14.595463 c -1.3429572,0.103305 -2.324349,1.756175 -2.324349,2.944175 0,0.258261 0.6714786,1.756175 0.6714786,1.962784 v 4.23548 c 0,0.258261 -0.3099132,2.685915 -0.3099132,3.615654 -0.3615654,1.859479 -0.258261,3.150784 -0.6714786,4.545394 l -0.3099132,0.671478 c -0.8264352,0.878088 -1.9627835,1.497914 -1.7045225,2.840871 -0.2066088,0.774783 0.6198263,2.014436 1.0330439,2.737567 v 0.258261 c -0.3615654,1.446261 -0.4132176,2.995827 -0.3615654,4.597045 -0.1033044,0.826436 0.4648698,1.704523 1.033044,2.324349 C 4.2354803,46 4.7520023,46.103304 5.6817419,45.948348 7.3346122,44.760347 7.9027864,43.004172 7.6961776,40.938085 7.799482,39.595127 7.3862644,39.285214 7.9544386,38.458779 8.1093952,38.303822 8.4709606,37.838953 8.6259172,37.7873 11.51844,36.909213 15.650616,35.927821 18.439835,36.186082 Z"
         style="-inkscape-font-specification:'Virgil 3 YOFF, Normal'"
         id="path326" />
      <path
         d="m 30.06161,42.849216 -0.516522,2.58261 c 0.619827,1.136348 1.704523,2.221044 3.099132,1.911131 1.291305,-0.103304 2.427653,-0.568174 4.080524,-0.671478 l 1.342957,0.361565 h 1.601218 c 0.878088,-0.723131 1.807827,-1.084696 2.944175,-1.291305 0.05165,0 0.258261,0 0.46487,-0.05165 l 1.704523,-0.206609 c 0.206609,-0.05165 0.413217,-0.05165 0.46487,-0.05165 2.58261,-0.46487 5.42348,-0.878088 7.489568,-1.652871 0.516522,-0.154956 0.878088,-1.342957 0.671479,-1.962783 -0.258261,-1.394609 -2.685914,-1.446262 -3.718958,-1.601218 -1.136349,-0.05165 -6.146612,0.46487 -7.386265,0.619826 -0.46487,-0.103304 -0.981392,-0.516522 -0.981392,-0.619826 -0.154956,-1.549566 0.206609,-3.667306 0.309914,-5.268525 0.826435,-3.512349 1.704522,-12.189918 2.58261,-15.702268 0,-0.05165 0.258261,-0.309913 0.309913,-0.309913 0.05165,0 0.154956,0 0.258261,-0.05165 l 1.084696,-0.206609 c 0.103304,-0.05165 0.258261,-0.05165 0.258261,-0.05165 1.033044,-0.154957 1.807827,-0.154957 2.376001,-0.154957 1.704523,0 2.272697,0.206609 5.785046,-1.239653 0.413218,-1.394609 -0.929739,-3.254088 -2.324349,-3.925567 H 50.72249 c -2.221045,-0.154956 -1.497914,-0.103304 -3.925567,0.413218 h -2.272697 c -0.46487,-0.671479 -1.239653,-0.723131 -1.962784,-0.671479 -0.671478,0.05165 -1.136348,0.92974 -1.65287,1.291305 -0.154957,0.154957 -0.826435,0.309913 -0.981392,0.361566 h -3.925567 c -0.826435,-0.568175 -1.394609,-0.826436 -2.427653,-0.723131 -1.291305,0.774783 -2.840871,2.376001 -2.789219,2.995827 0.154957,1.291305 0.258261,1.911132 1.291305,2.634262 0.361565,0.154957 0.929739,0.258261 1.497914,0.258261 0.413217,0 0.826435,-0.05165 1.136348,-0.258261 1.033044,0 1.962784,-0.258261 2.840871,-0.258261 0.516522,0 0.981392,0.103305 1.497914,0.309914 0.154956,1.859479 -0.309913,6.973046 -0.568174,8.832526 -0.671479,3.202436 -0.774783,9.762265 -1.756175,12.034962 -0.154957,0.671479 -0.619827,0.826435 -1.291305,0.981392 z"
         style="-inkscape-font-specification:'Virgil 3 YOFF, Normal'"
         id="path328" />
      <path
         d="m 59.34841,43.314086 c 0,0.05165 0.154957,0.981391 0.309913,1.342957 0.05165,1.084696 0.878088,1.601218 1.756175,2.221044 0.671479,-0.103304 1.549566,-0.413217 1.859479,-0.671478 1.39461,-0.723131 1.342957,-2.479306 1.291305,-3.822263 v -0.361565 c -0.516522,-1.756175 -0.46487,-5.061916 -0.309913,-7.179656 l 0.309913,-0.309913 1.601218,0.309913 h 0.361566 c 0.103304,-0.103304 2.066088,-0.981392 2.272697,-0.981392 2.634262,-0.826435 6.766438,-1.601218 9.504004,-2.634262 1.39461,-0.413217 4.855307,-0.568174 6.198264,-1.291305 1.033044,-0.929739 0.878087,-2.272697 -0.361565,-2.944175 -0.723131,-0.258261 -1.497914,-0.361566 -2.324349,-0.361566 -1.342957,0 -2.789219,0.258261 -4.132176,0.413218 -3.667306,0.413218 -5.836699,1.601218 -9.194092,1.911131 -0.154956,0 -0.464869,0 -0.826435,-0.05165 l -2.58261,-0.206609 c -0.361565,-0.05165 -0.671478,-0.05165 -0.826435,-0.05165 -0.154957,-0.826435 -0.361565,-5.061915 -0.361565,-5.88835 v -3.254089 l 0.671478,-0.671479 c 0.154957,-0.154956 0.826435,-0.619826 0.981392,-0.671478 0.103304,0 2.066088,-0.723131 2.58261,-0.981392 5.733394,-1.962783 11.570093,-3.564002 17.665052,-2.944175 0.206609,0.05165 0.413218,0.154956 0.619826,0.309913 l 0.568175,0.413218 c 0.361565,0.258261 0.774783,0.413217 1.239652,0.309913 0.826435,-0.309913 1.497914,-1.188001 1.188001,-2.066088 0.413217,-1.704523 -1.394609,-3.5123498 -2.944175,-3.5123498 -0.361566,-0.2066087 -1.033044,-0.3099131 -1.807827,-0.3099131 -1.85948,0 -4.338785,0.4648697 -4.752003,0.3099131 -2.066088,0.2066088 -5.268524,0.8264348 -7.179655,1.6012178 -4.287133,1.342958 -8.574265,1.601219 -12.758093,3.150785 -1.549566,0.72313 -2.479306,1.601218 -2.272697,3.409045 l 1.65287,2.272696 z"
         style="-inkscape-font-specification:'Virgil 3 YOFF, Normal'"
         id="path330" />
      <path
         d="m 87.860389,42.849216 -0.516522,2.58261 c 0.619826,1.136348 1.704522,2.221044 3.099132,1.911131 1.291305,-0.103304 2.427653,-0.568174 4.080523,-0.671478 l 1.342958,0.361565 h 1.601218 c 0.878087,-0.723131 1.807827,-1.084696 2.944172,-1.291305 0.0517,0 0.25826,0 0.46487,-0.05165 l 1.70453,-0.206609 c 0.2066,-0.05165 0.41321,-0.05165 0.46487,-0.05165 2.58261,-0.46487 5.42348,-0.878088 7.48956,-1.652871 0.51653,-0.154956 0.87809,-1.342957 0.67148,-1.962783 -0.25826,-1.394609 -2.68591,-1.446262 -3.71896,-1.601218 -1.13634,-0.05165 -6.14661,0.46487 -7.38626,0.619826 -0.46487,-0.103304 -0.981392,-0.516522 -0.981392,-0.619826 -0.154957,-1.549566 0.206609,-3.667306 0.309913,-5.268525 0.826439,-3.512349 1.704519,-12.189918 2.582609,-15.702268 0,-0.05165 0.25826,-0.309913 0.30991,-0.309913 0.0517,0 0.15496,0 0.25827,-0.05165 l 1.08469,-0.206609 c 0.10331,-0.05165 0.25826,-0.05165 0.25826,-0.05165 1.03305,-0.154957 1.80783,-0.154957 2.376,-0.154957 1.70453,0 2.2727,0.206609 5.78505,-1.239653 0.41322,-1.394609 -0.92974,-3.254088 -2.32435,-3.925567 h -1.23965 c -2.22105,-0.154956 -1.49792,-0.103304 -3.92557,0.413218 h -2.2727 c -0.46487,-0.671479 -1.23965,-0.723131 -1.96278,-0.671479 -0.671478,0.05165 -1.136348,0.92974 -1.65287,1.291305 -0.154956,0.154957 -0.826435,0.309913 -0.981391,0.361566 h -3.925567 c -0.826436,-0.568175 -1.39461,-0.826436 -2.427654,-0.723131 -1.291305,0.774783 -2.840871,2.376001 -2.789219,2.995827 0.154957,1.291305 0.258261,1.911132 1.291305,2.634262 0.361566,0.154957 0.92974,0.258261 1.497914,0.258261 0.413218,0 0.826435,-0.05165 1.136349,-0.258261 1.033044,0 1.962783,-0.258261 2.840871,-0.258261 0.516522,0 0.981391,0.103305 1.497913,0.309914 0.154957,1.859479 -0.309913,6.973046 -0.568174,8.832526 -0.671478,3.202436 -0.774783,9.762265 -1.756175,12.034962 -0.154956,0.671479 -0.619826,0.826435 -1.291305,0.981392 z"
         style="-inkscape-font-specification:'Virgil 3 YOFF, Normal'"
         id="path332" />
      <path
         d="m 114.9778,39.956693 c 0,1.291305 0.98139,2.530957 1.96278,3.254088 0.20661,0.206609 1.60122,0.878088 1.96278,0.981392 3.4607,1.549566 6.35322,1.756175 10.07218,1.65287 2.94418,0.05165 5.68174,0.103305 8.52262,-1.033044 2.63426,-0.981391 5.11356,-3.202436 6.24991,-5.836698 0.25826,-1.859479 -0.20661,-3.564002 -0.98139,-5.216872 -2.78922,-3.460697 -6.61148,-5.320177 -10.79531,-6.869743 -2.376,-1.188 -5.73339,-2.11774 -7.17966,-4.23548 v -0.309913 c 1.39461,-0.878087 2.84088,-1.291305 4.90696,-2.066088 2.42766,-1.136348 6.09496,-2.530958 8.47096,-3.822263 0.72313,-0.206609 1.96279,-0.826435 2.63427,-0.671478 0.1033,0 1.08469,0.671478 1.2913,0.671478 1.03304,0.309913 2.06609,-0.619826 2.63426,-1.342957 -0.1033,-1.084696 0.36157,-2.169392 -0.67148,-2.944175 l -2.01443,-0.981392 -2.99583,0.309913 c -1.49791,0.258261 -5.52678,2.014436 -7.23131,2.634262 -3.40904,1.239653 -7.0247,2.376001 -9.65896,4.287133 -0.25826,0 -2.11774,0.619826 -2.27269,0.619826 -0.87809,0.413218 -1.85948,0.826435 -2.1694,1.756175 -0.15495,0.981392 -0.41321,2.58261 0.20661,3.460697 1.75618,2.014436 2.2727,2.479306 4.59705,3.615654 4.08052,2.014436 7.79948,3.667306 12.08661,5.216872 1.188,1.291305 3.66731,2.169393 4.23548,3.925567 0.51652,1.239653 -0.72313,2.221045 -1.65287,2.944176 -3.51235,1.239653 -7.17965,1.033044 -10.79531,0.981392 -1.91113,-0.154957 -3.87391,-0.619827 -5.52678,-1.652871 -0.10331,-0.103304 -0.72313,-0.774783 -1.0847,-1.033044 -0.82643,-0.774783 -2.11774,-1.084696 -3.15078,-0.878087 -1.0847,0.154956 -1.75618,1.497914 -1.65287,2.58261 z"
         style="-inkscape-font-specification:'Virgil 3 YOFF, Normal'"
         id="path334" />
    </g>
  </g>
  <g
     stroke-linecap="round"
     id="g894"
     transform="translate(-6.8,-56.900293)">
    <g
       transform="translate(200,172)"
       id="g884">
      <path
         d="M -2.28,1.71 C -15.03,8.76 -64.6,35.43 -77.92,42.63 M 1.67,0.16 C -11.13,7.47 -65.98,37 -79.03,44.98"
         stroke="#000000"
         stroke-width="2"
         fill="none"
         id="path882" />
    </g>
    <g
       transform="translate(200,172)"
       id="g888">
      <path
         d="m -57.17,25.08 c -10.6,-0.8 -12.13,9.59 -24.41,20.82 m 23.55,-24.77 c -6.79,10.24 -14.76,17.12 -21.7,24.44"
         stroke="#000000"
         stroke-width="2"
         fill="none"
         id="path886" />
    </g>
    <g
       transform="translate(200,172)"
       id="g892">
      <path
         d="m -47.02,42.92 c -13.16,-5.4 -17.21,0.55 -34.56,2.98 m 33.7,-6.94 c -10.19,4.61 -21.48,5.66 -31.85,6.61"
         stroke="#000000"
         stroke-width="2"
         fill="none"
         id="path890" />
    </g>
  </g>
  <g
     stroke-linecap="round"
     id="g908"
     transform="translate(-6.8,-56.900293)">
    <g
       transform="translate(319,175)"
       id="g898">
      <path
         d="m 1.05,-1.78 c 0.65,8.3 0.49,42.63 0.6,51.52 M -1.82,3.43 c 0.54,7.41 1.24,34.36 1.58,41.7"
         stroke="#000000"
         stroke-width="2"
         fill="none"
         id="path896" />
    </g>
    <g
       transform="translate(319,175)"
       id="g902">
      <path
         d="m -11.99,23.35 c 5.62,4.97 10.28,12.15 9.77,23.82 m -7.92,-24.15 c 4.15,8.61 8.33,16.05 8.73,21.35"
         stroke="#000000"
         stroke-width="2"
         fill="none"
         id="path900" />
    </g>
    <g
       transform="translate(319,175)"
       id="g906">
      <path
         d="M 4.76,22.74 C 6.7,27.98 7.67,35.29 -2.22,47.17 M 6.61,22.41 C 4.54,31.39 2.5,39.06 -1.41,44.37"
         stroke="#000000"
         stroke-width="2"
         fill="none"
         id="path904" />
    </g>
  </g>
  <g
     stroke-linecap="round"
     id="g922"
     transform="translate(-6.8,-56.900293)">
    <g
       transform="translate(448,177)"
       id="g912">
      <path
         d="M 0.46,-1.09 C 15.3,5.47 72.89,32.61 87.79,39.43 M -2.73,-4.16 c 15.82,7.09 80.6,40.98 95.72,47.45"
         stroke="#000000"
         stroke-width="2"
         fill="none"
         id="path910" />
    </g>
    <g
       transform="translate(448,177)"
       id="g916">
      <path
         d="m 61.58,37.11 c 9.77,3.66 17.89,1.38 31.14,8.63 M 62.06,39.93 c 11.09,2.92 24.91,2.57 29.51,4.03"
         stroke="#000000"
         stroke-width="2"
         fill="none"
         id="path914" />
    </g>
    <g
       transform="translate(448,177)"
       id="g920">
      <path
         d="m 70.51,18.63 c 7.5,8.39 13.35,10.82 22.21,27.11 M 70.98,21.46 c 7.63,10.16 17.93,17.12 20.59,22.5"
         stroke="#000000"
         stroke-width="2"
         fill="none"
         id="path918" />
    </g>
  </g>
  <path
     d="m 4.89,163.98971 189.24,2.71 1.7,97.85 -191.05,1.43"
     stroke="none"
     stroke-width="0"
     fill="#228be6"
     id="path852"
     style="stroke-linecap:round" />
  <path
     d="m 6.2,166.09971 c 62.31,2.85 127.28,-0.72 189.26,-1.64 m -191.5,0.78 c 58.03,-2.3 115.1,-3.55 187.44,-0.96 m 4,2.47 c -2.89,22.15 -1.03,44.96 -2.44,99.8 m -2.47,-99.57 c 4.55,27.72 4.76,56.12 0.56,99.96 m 2.85,-1.29 c -46.01,3.86 -94.3,6.51 -189.55,4.29 m 187.23,-1.95 c -68.49,-3.37 -140.75,-1.16 -188.57,-1.48 m -2.51,-2.18 c 1.4,-18.88 0.31,-44.04 3.88,-98.9 m 0.79,100.46 c -4.13,-20.42 -2,-38.78 -0.06,-99.82"
     stroke="#1864ab"
     stroke-width="1"
     fill="none"
     id="path854"
     style="stroke-linecap:round" />
  <g
     aria-label="Software"
     id="text858"
     style="font-size:28px;font-family:'Virgil 3 YOFF';text-anchor:middle;white-space:pre;fill:#ffffff">
    <path
       d="m 35.483976,220.8237 c 0,0.7 0.532,1.372 1.064,1.764 0.112,0.112 0.868,0.476 1.064,0.532 1.876,0.84 3.444,0.952 5.46,0.896 1.596,0.028 3.08,0.056 4.62,-0.56 1.428,-0.532 2.772,-1.736 3.388,-3.164 0.14,-1.008 -0.112,-1.932 -0.532,-2.828 -1.512,-1.876 -3.584,-2.884 -5.852,-3.724 -1.288,-0.644 -3.108,-1.148 -3.892,-2.296 v -0.168 c 0.756,-0.476 1.54,-0.7 2.66,-1.12 1.316,-0.616 3.304,-1.372 4.592,-2.072 0.392,-0.112 1.064,-0.448 1.428,-0.364 0.056,0 0.588,0.364 0.7,0.364 0.56,0.168 1.12,-0.336 1.428,-0.728 -0.056,-0.588 0.196,-1.176 -0.364,-1.596 l -1.092,-0.532 -1.624,0.168 c -0.812,0.14 -2.996,1.092 -3.92,1.428 -1.848,0.672 -3.808,1.288 -5.236,2.324 -0.14,0 -1.148,0.336 -1.232,0.336 -0.476,0.224 -1.008,0.448 -1.176,0.952 -0.084,0.532 -0.224,1.4 0.112,1.876 0.952,1.092 1.232,1.344 2.492,1.96 2.212,1.092 4.228,1.988 6.552,2.828 0.644,0.7 1.988,1.176 2.296,2.128 0.28,0.672 -0.392,1.204 -0.896,1.596 -1.904,0.672 -3.892,0.56 -5.852,0.532 -1.036,-0.084 -2.1,-0.336 -2.996,-0.896 -0.056,-0.056 -0.392,-0.42 -0.588,-0.56 -0.448,-0.42 -1.148,-0.588 -1.708,-0.476 -0.588,0.084 -0.952,0.812 -0.896,1.4 z"
       style="-inkscape-font-specification:'Virgil 3 YOFF, Normal'"
       id="path309" />
    <path
       d="m 53.01197,220.3757 c 1.148,3.108 1.568,3.192 4.788,3.864 1.344,0 2.604,0.168 3.892,-0.336 2.324,-0.532 4.116,-1.82 5.32,-3.892 0.532,-1.204 0.084,-2.66 -0.7,-3.724 -1.708,-2.128 -4.452,-3.36 -7.168,-3.36 -0.98,0 -2.044,0.168 -2.94,0.7 -0.952,0.588 -2.268,1.288 -3.192,1.96 -0.28,0.392 -0.28,1.372 0,1.764 z m 2.66,0 c 0.084,-0.728 -0.168,-1.428 0.196,-2.128 0.084,-0.448 0.868,-1.064 1.232,-1.428 0.42,-0.196 0.728,-0.56 1.064,-0.868 0.084,-0.084 0.448,-0.336 0.532,-0.364 0.364,-0.168 0.756,-0.252 1.176,-0.252 1.26,0 2.604,0.756 3.612,1.316 0.56,0.616 1.512,1.148 1.232,2.128 -0.28,2.352 -3.724,3.332 -5.768,3.332 -0.7,0 -1.372,-0.084 -1.848,-0.336 -0.504,-0.112 -1.204,-0.952 -1.428,-1.4 z"
       style="-inkscape-font-specification:'Virgil 3 YOFF, Normal'"
       id="path311" />
    <path
       d="m 69.923994,216.6517 c 0,1.848 0.028,3.696 0.532,5.488 0.364,1.176 0.42,2.044 1.596,2.268 0.28,-0.252 1.036,-0.588 1.064,-1.008 -0.084,-1.988 -0.924,-3.444 -0.728,-5.516 0,-0.056 0,-0.14 0,-0.224 l 0.028,-0.616 c 0,-0.084 0,-0.168 0,-0.224 0.476,-0.14 0.924,-0.196 1.372,-0.196 0.532,0 1.064,0.084 1.624,0.196 1.26,0.168 2.772,0.644 4.088,0.644 0.364,0 0.7,-0.028 1.036,-0.112 0.644,-0.028 1.036,-0.672 0.896,-1.232 -0.7,-0.644 -1.596,-0.952 -2.464,-1.232 -2.324,-0.476 -4.172,-0.532 -6.552,-1.064 l -0.364,-0.196 c -0.308,-2.184 -0.252,-4.48 0,-6.72 0.196,-1.148 1.092,-2.128 2.296,-1.764 0.924,0.252 2.408,1.96 3.192,2.464 0.308,0.308 1.68,1.848 1.96,2.128 0,0.196 0.112,1.064 0.168,1.26 0.224,0.476 0.476,0.868 1.064,0.728 0.7,0.308 0.756,-0.728 1.064,-1.092 -0.028,-0.56 0.112,-1.092 -0.196,-1.596 -0.14,-0.308 -0.7,-1.008 -0.868,-1.232 -2.044,-1.792 -3.948,-4.48 -6.384,-5.488 -0.448,-0.112 -0.952,-0.224 -1.428,-0.224 -0.672,0 -1.316,0.196 -1.764,0.756 -0.476,0.868 -1.344,1.736 -1.232,2.996 -0.084,1.176 -0.392,2.436 -0.336,3.556 0,1.148 0.056,2.996 0.056,3.5 -0.616,0.196 -1.008,-0.252 -1.624,-0.168 -0.728,-0.028 -1.036,0.756 -0.924,1.428 -0.196,1.232 1.288,1.708 2.296,1.96 0.112,0.084 0.448,0.42 0.532,0.532 z"
       style="-inkscape-font-specification:'Virgil 3 YOFF, Normal'"
       id="path313" />
    <path
       d="m 86.023996,218.8357 c 0,0.028 0,0.028 0.028,0.056 0.084,0.896 0.252,1.792 0.28,2.66 -0.196,1.372 0.728,2.352 1.176,3.304 0.476,0.616 1.176,0.812 1.904,0.84 0.504,0 1.064,-0.336 1.512,-0.448 3.136,-1.036 3.304,-1.512 4.228,-3.388 0.336,-0.504 0.336,-1.12 0.42,-1.708 -0.196,-0.42 -0.252,-1.456 -1.092,-1.316 -0.7,-0.028 -0.924,0.308 -1.12,0.84 -0.084,0.168 -0.28,1.148 -0.252,1.344 -0.896,1.512 -1.12,1.428 -2.38,1.736 -0.252,0.056 -0.448,0.084 -0.644,0.084 -0.448,-0.028 -0.7,-0.252 -1.008,-0.532 -0.616,-1.484 -0.504,-5.516 -0.504,-6.104 -0.308,-1.26 -0.112,-2.296 -0.112,-3.528 l 0.14,-0.196 c 0.476,-0.168 1.092,-0.336 1.652,-0.364 l 0.056,-0.028 c 1.484,-0.308 2.856,-0.7 4.312,-0.812 0.28,-0.056 0.476,-0.28 0.728,-0.532 0.168,-0.7 -0.084,-1.288 -0.896,-1.4 l -1.288,-0.056 c -1.624,-0.196 -2.492,0.224 -4.116,0.364 -0.084,-0.028 -0.448,-0.14 -0.532,-0.168 -0.364,-0.364 -0.14,-2.38 -0.336,-2.828 -0.056,-0.532 -0.448,-1.148 -0.84,-1.456 -0.672,-0.14 -1.12,-0.028 -1.596,0.504 l -0.056,4.396 -0.196,0.224 c -1.512,0.28 -2.716,0.532 -4.34,0.56 l -0.924,0.812 c -0.252,0.336 -0.252,1.148 -0.112,1.54 0.392,0.336 0.7,0.84 1.148,1.008 0.616,0.084 0.952,-0.308 1.54,-0.336 0.896,-0.448 1.652,-0.532 2.828,-0.616 0.196,0.14 0.252,0.532 0.308,0.756 0.028,0.336 0.14,2.072 0.14,2.492 z"
       style="-inkscape-font-specification:'Virgil 3 YOFF, Normal'"
       id="path315" />
    <path
       d="m 97.784011,216.0357 c 0,0.112 0.168,0.812 0.168,0.896 v 0.784 c 0.084,1.568 -0.196,2.996 0.196,4.536 0.224,0.756 0.616,1.708 1.232,2.1 0.336,0.28 1.007999,0.168 1.427999,0.168 1.316,-0.56 2.016,-1.96 3.164,-2.632 l 0.196,0.168 c 0.392,0.868 1.064,1.652 1.932,1.96 0.756,0 1.792,-0.364 2.38,-0.924 1.204,-1.176 2.324,-2.436 3.304,-3.864 1.54,-1.82 2.828,-3.472 4.228,-5.292 0.224,-0.616 0.42,-1.372 -0.168,-1.792 -0.476,0.056 -1.008,-0.168 -1.428,0.196 -0.224,0.224 -1.26,1.176 -1.4,1.4 -0.14,0.196 -0.98,1.344 -1.232,1.764 -1.4,1.736 -2.604,3.584 -4.256,4.984 h -0.532 c -0.084,-0.084 -0.336,-0.28 -0.364,-0.364 0,-0.252 -0.28,-1.568 -0.336,-1.764 -0.308,-0.476 -0.616,-1.288 -1.232,-1.26 -0.616,0.084 -1.512,0.252 -1.96,0.728 -0.252,0.252 -0.224,0.728 -0.364,1.064 l -0.168,0.336 c -0.588,0.644 -1.204,1.764 -1.876,2.156 -0.084,0 -0.224,-0.112 -0.252,-0.196 -0.028,-0.616 -0.028,-1.596 0,-2.128 0.084,-0.7 0.28,-1.904 0.7,-2.492 0.42,-0.588 -0.028,-1.708 0,-2.464 -0.364,-0.336 -0.756,-0.98 -1.315999,-0.896 -0.56,0.112 -1.232,0.336 -1.68,0.728 -0.336,0.308 -0.28,1.288 -0.364,2.1 z"
       style="-inkscape-font-specification:'Virgil 3 YOFF, Normal'"
       id="path317" />
    <path
       d="m 125.61599,220.0677 c 1.092,1.176 2.184,2.716 3.36,3.724 l 0.112,0.056 c 0.784,0.42 1.176,0.812 2.016,0.616 0.42,-0.112 0.98,-0.308 1.232,-0.672 0.056,-0.196 0.252,-0.532 0.196,-0.728 -0.084,-0.084 -0.28,-0.308 -0.364,-0.336 -0.616,-0.084 -0.896,-0.56 -1.596,-1.064 -0.224,-0.28 -1.204,-0.98 -1.428,-1.26 -0.84,-1.372 -1.708,-3.052 -2.464,-4.592 -0.224,-0.336 -0.672,-0.532 -1.064,-0.7 -0.084,-0.084 -0.336,-0.28 -0.364,-0.364 0.224,-0.532 -0.56,-0.672 -0.868,-0.896 -0.84,-0.084 -1.764,-0.224 -2.66,-0.224 -1.148,0 -2.268,0.196 -3.192,0.952 -1.568,1.316 -3.64,2.912 -3.724,5.124 -0.308,1.26 0.364,2.268 1.064,3.36 0.728,0.868 2.1,1.372 3.248,1.232 2.464,0.028 4.424,-1.848 5.964,-3.528 0.112,-0.196 0.336,-0.56 0.532,-0.7 z m -8.148,0.868 c -0.308,-0.56 -0.588,-1.232 -0.168,-1.764 0.952,-1.344 2.1,-2.968 3.696,-3.192 1.12,-0.252 2.128,-0.14 3.22,-0.392 0.028,0.364 -0.168,1.12 -0.196,1.456 -0.112,0.952 -0.7,1.932 -1.232,2.66 -0.784,0.868 -1.232,1.288 -2.492,1.764 -0.42,0.112 -0.868,0.224 -1.316,0.224 -0.588,0 -1.148,-0.196 -1.512,-0.756 z"
       style="-inkscape-font-specification:'Virgil 3 YOFF, Normal'"
       id="path319" />
    <path
       d="m 133.87598,216.5957 c -0.308,1.624 -0.364,4.564 -0.364,6.356 0.168,0.504 0.56,1.26 1.064,1.568 0.252,0.196 0.532,0.336 0.812,0.336 0.224,0 0.448,-0.112 0.616,-0.336 0.476,-0.812 1.064,-1.68 0.532,-2.632 -0.392,-1.484 -0.112,-2.968 -0.196,-4.48 0.28,-0.812 0.756,-1.4 1.26,-2.072 0.028,-0.028 0.14,-0.168 0.168,-0.168 0.952,-0.532 1.988,-0.336 2.996,-0.364 1.12,0.084 1.904,0.728 2.968,1.316 0.476,0.224 1.316,0.364 1.82,0.28 0.364,-0.084 0.168,-0.896 0.196,-1.232 -0.784,-0.784 -2.492,-1.932 -3.388,-2.492 -0.84,-0.448 -2.044,-0.672 -3.22,-0.672 -0.98,0 -1.932,0.168 -2.604,0.504 -1.288,1.176 -2.352,2.268 -2.66,4.088 z"
       style="-inkscape-font-specification:'Virgil 3 YOFF, Normal'"
       id="path321" />
    <path
       d="m 147.79199,216.1197 c -1.288,2.016 -2.604,4.284 -1.96,6.748 0.672,1.568 1.68,2.912 3.192,3.696 1.512,0.924 3.052,1.344 4.732,1.26 1.54,0.056 3.052,-0.504 4.564,-0.896 0.896,-0.056 1.792,-0.448 2.492,-1.232 v -1.036 c -0.056,-0.364 -0.308,-0.56 -0.56,-0.504 h -0.196 c -1.176,0.084 -1.624,0.112 -2.604,0.504 -1.372,0.364 -2.52,0.868 -3.864,0.7 -2.464,0.168 -5.04,-1.848 -5.46,-4.256 -0.028,-0.7 0.504,-1.54 0.896,-2.128 0.056,-0.028 0.14,-0.028 0.196,0 0.056,0 0.644,0.476 0.7,0.532 0.98,0.588 2.1,1.064 3.22,1.064 0.392,0 0.812,-0.056 1.204,-0.196 1.96,-0.14 3.92,-2.044 3.892,-4.06 -0.112,-2.38 -2.212,-3.696 -4.396,-3.752 -0.588,-0.028 -0.98,0.112 -1.624,0.196 -1.848,0.588 -3.276,1.876 -4.424,3.36 z m 2.184,1.344 c 0,-0.084 0.084,-0.196 0.112,-0.28 0.952,-0.952 2.128,-2.1 3.556,-2.128 0.84,0.336 2.24,0.476 1.932,1.596 -0.364,0.616 -1.204,1.036 -1.932,1.26 -0.924,0 -1.792,0.084 -2.66,-0.364 -0.14,-0.028 -0.868,-0.084 -1.008,-0.084 z"
       style="-inkscape-font-specification:'Virgil 3 YOFF, Normal'"
       id="path323" />
  </g>
  <g
     id="text932"
     style="font-size:20px;font-family:'Virgil 3 YOFF';white-space:pre" />
  <g
     id="text936"
     style="font-size:20px;font-family:'Virgil 3 YOFF';white-space:pre" />
  <g
     stroke-linecap="round"
     transform="translate(440.96,166.93824)"
     id="g866">
    <path
       d="m -3.49,-0.27 191.56,1.58 3.9,98.58 L 0.22,97.88"
       stroke="none"
       stroke-width="0"
       fill="#228be6"
       id="path862" />
    <path
       d="m -0.62,-1.91 c 68.6,-0.39 133.25,6.67 189.88,3.4 m -188.65,-3 c 59.98,-1.1 123.33,-0.46 187.67,1.42 m -1.4,2.28 c 2.83,40.05 1.36,71.79 2.47,102.56 M 188.58,1.87 c -3.19,36.51 0.3,75.93 0.19,99.31 m -2.2,0.32 c -45.54,2.39 -93.45,5.7 -188.09,1.36 m 188.67,-3.08 c -64.93,4.29 -132.61,2.09 -188.05,1.56 M 1.3,99.99 C 3.58,64.8 3.02,29.35 2.78,-0.74 M -0.21,102.68 C 1.58,73.06 -0.74,41.02 -0.83,-1.02"
       stroke="#1864ab"
       stroke-width="1"
       fill="none"
       id="path864" />
  </g>
  <g
     transform="translate(471.96,198.93824)"
     id="g870">
    <g
       aria-label="Backbone"
       id="text868"
       style="font-size:28px;font-family:'Virgil 3 YOFF';text-anchor:middle;white-space:pre;fill:#ffffff">
      <path
         d="m 1.5219784,24.264 c -0.69999998,0.392 -0.55999998,1.456 -0.42,2.1 0.28,0.784 1.12,0.952 2.016,1.064 0.196,0.056 2.1,0.196 2.296,0.196 1.372,0.14 2.716,0.196 4.06,0.196 1.5959996,0 3.1919996,-0.112 4.8159996,-0.392 2.436,-0.224 4.732,-1.512 5.824,-3.696 0.56,-1.316 -0.084,-2.884 -0.868,-4.06 -0.7,-0.84 -1.764,-1.512 -2.492,-2.296 1.428,-1.372 3.024,-2.94 2.688,-5.096 0.168,-1.68 -1.596,-3.332 -2.856,-4.312 -3.164,-2.156 -7.1119996,-2.296 -10.8079996,-2.828 -0.98,-0.448 -1.988,-0.504 -3.192,-0.532 -0.196,0.084 -0.532,0.448 -0.532,0.532 v 1.428 c 0,0.028 0.336,0.392 0.532,0.532 0.616,0.42 1.316,0.336 2.016,0.336 h 0.28 l 0.84,0.14 c -0.056,0.168 -0.084,0.392 -0.112,0.616 -0.532,2.968 -0.252,7.56 -0.196,10.416 0.084,1.092 0.308,5.124 0.784,6.384 h -0.084 l -1.568,-0.728 c -0.616,-0.14 -1.232,-0.364 -1.848,-0.364 -0.392,0 -0.784,0.112 -1.176,0.364 z M 12.161978,8.5 c 1.736,0.392 3.668,1.54 4.592,3.024 0.28,0.896 0.42,2.1 -0.532,2.66 -1.456,1.316 -3.136,1.596 -5.04,1.764 -0.252,0.056 -1.2599996,-0.14 -1.5119996,-0.168 -0.532,-0.028 -1.148,-0.056 -1.596,0.168 -0.028,0 -0.224,-0.028 -0.224,-0.028 -0.028,-1.848 -0.112,-6.216 -0.42,-8.148 1.568,0.14 3.1359996,0.252 4.7319996,0.728 z M 8.7739784,24.18 c -0.168,-0.364 -0.588,-4.508 -0.532,-4.872 0.196,-0.056 1.232,-0.336 1.428,-0.336 1.6239996,0.224 3.2759996,0.084 4.7879996,0.7 1.4,0.28 2.996,1.008 3.36,2.492 -0.28,2.576 -3.416,2.828 -5.32,2.996 -1.204,0.084 -2.492,0 -3.7799996,-0.056 0.112,-0.28 0.056,-0.588 0.056,-0.924 z"
         style="-inkscape-font-specification:'Virgil 3 YOFF, Normal'"
         id="path290" />
      <path
         d="m 32.853958,21.968 c 1.092,1.176 2.184,2.716 3.36,3.724 l 0.112,0.056 c 0.784,0.42 1.176,0.812 2.016,0.616 0.42,-0.112 0.98,-0.308 1.232,-0.672 0.056,-0.196 0.252,-0.532 0.196,-0.728 -0.084,-0.084 -0.28,-0.308 -0.364,-0.336 -0.616,-0.084 -0.896,-0.56 -1.596,-1.064 -0.224,-0.28 -1.204,-0.98 -1.428,-1.26 -0.84,-1.372 -1.708,-3.052 -2.464,-4.592 -0.224,-0.336 -0.672,-0.532 -1.064,-0.7 -0.084,-0.084 -0.336,-0.28 -0.364,-0.364 0.224,-0.532 -0.56,-0.672 -0.868,-0.896 -0.84,-0.084 -1.764,-0.224 -2.66,-0.224 -1.148,0 -2.268,0.196 -3.192,0.952 -1.568,1.316 -3.64,2.912 -3.724,5.124 -0.308,1.26 0.364,2.268 1.064,3.36 0.728,0.868 2.1,1.372 3.248,1.232 2.464,0.028 4.424,-1.848 5.964,-3.528 0.112,-0.196 0.336,-0.56 0.532,-0.7 z m -8.148,0.868 c -0.308,-0.56 -0.588,-1.232 -0.168,-1.764 0.952,-1.344 2.1,-2.968 3.696,-3.192 1.12,-0.252 2.128,-0.14 3.22,-0.392 0.028,0.364 -0.168,1.12 -0.196,1.456 -0.112,0.952 -0.7,1.932 -1.232,2.66 -0.784,0.868 -1.232,1.288 -2.492,1.764 -0.42,0.112 -0.868,0.224 -1.316,0.224 -0.588,0 -1.148,-0.196 -1.512,-0.756 z"
         style="-inkscape-font-specification:'Virgil 3 YOFF, Normal'"
         id="path292" />
      <path
         d="m 40.553953,20.54 c -0.112,1.092 0.056,2.324 0.7,3.192 0.98,1.26 2.548,2.128 4.088,2.632 1.372,0.42 2.688,0.616 4.088,0.868 1.008,0.28 1.792,0.476 2.828,0.364 0.532,-0.168 1.288,-0.7 1.428,-1.232 0.056,-0.252 -0.308,-0.84 -0.532,-1.036 l -3.388,-0.728 c -1.428,-0.252 -2.912,-0.476 -4.284,-1.008 -0.756,-0.28 -1.372,-0.812 -1.904,-1.456 -0.672,-0.336 -0.168,-1.596 -0.196,-1.96 0.84,-1.176 1.736,-2.464 3.192,-2.828 0.7,-0.028 1.344,-0.14 1.988,0.28 0.308,0.168 0.728,1.288 0.868,1.652 0.224,0.616 0.924,0.336 1.4,0.364 0.336,-0.028 0.588,-0.448 0.728,-0.7 0.056,-0.896 0.028,-1.904 -0.532,-2.66 -0.812,-0.812 -1.764,-1.848 -3.024,-1.792 -1.82,-0.336 -3.724,0.56 -4.956,1.96 -1.456,1.232 -2.212,2.268 -2.492,4.088 z"
         style="-inkscape-font-specification:'Virgil 3 YOFF, Normal'"
         id="path294" />
      <path
         d="m 58.613976,21.996 c 1.344,2.044 2.912,3.612 5.152,4.592 0.7,0.056 1.26,-0.224 1.764,-0.672 0.168,-0.728 0.448,-1.848 -0.168,-2.492 -0.224,-0.42 -0.644,-0.392 -1.064,-0.364 -0.28,0.112 -0.588,0.252 -0.896,0.196 -1.624,-0.7 -2.576,-2.464 -3.192,-4.088 V 19 c 3.332,-1.708 3.808,-2.1 3.752,-2.156 0.224,-0.056 0.588,-0.196 1.26,-0.448 0.672,-0.168 1.428,-0.14 1.792,-0.7 0.056,-0.28 -0.42,-1.176 -0.644,-1.428 -0.336,-0.14 -0.644,-0.196 -0.952,-0.196 -0.924,0 -1.736,0.504 -2.66,0.924 -1.4,0.448 -1.12,0.448 -4.844,1.876 -0.14,0.056 -0.308,-0.056 -0.364,-0.168 0,-1.12 0,-2.268 0,-3.388 0,-0.14 -0.084,-1.372 -0.168,-1.764 -0.084,-0.588 -0.364,-2.352 -0.364,-2.464 -0.196,-0.532 -0.616,-1.456 -1.316,-1.288 -0.42,-0.028 -0.616,0.056 -0.812,0.392 0.028,1.148 -0.084,2.184 0.196,3.36 v 7.98 c 0.084,0.448 0.224,1.008 0.168,1.428 -0.028,1.008 -0.168,1.4 -0.896,1.932 -0.308,0.812 -0.28,1.904 0.196,2.66 0.28,0.504 0.868,0.588 1.4,0.504 0.616,-0.364 0.98,-1.092 1.26,-1.736 0.532,-0.952 0.392,-2.352 0.588,-3.388 h 0.224 c 0.028,0 0.056,0 0.056,0.028 0.308,0.196 0.364,0.588 0.532,1.036 z"
         style="-inkscape-font-specification:'Virgil 3 YOFF, Normal'"
         id="path296" />
      <path
         d="m 68.469962,17.292 c -0.028,1.26 -0.028,2.828 0,4.088 0.168,1.624 1.036,3.08 2.38,3.92 1.26,0.728 2.184,1.148 3.556,1.036 1.736,0.028 3.444,-0.448 4.872,-1.428 1.036,-0.952 2.212,-1.988 1.988,-3.472 0.112,-1.316 -0.924,-3.08 -2.184,-3.696 -1.204,-0.56 -2.38,-0.756 -3.64,-0.756 -0.896,0 -1.792,0.112 -2.772,0.196 -0.028,0 -0.112,0 -0.252,0.028 l -0.896,0.168 c -0.14,0 -0.224,0.028 -0.252,0.028 -0.168,-1.288 0,-3.92 0.224,-5.768 0.112,-1.932 0.504,-3.752 0.532,-5.684 -0.224,-0.476 -0.728,-0.924 -1.232,-0.924 -0.196,0 -0.392,0.084 -0.56,0.224 -0.252,0.28 -0.588,0.504 -0.7,0.896 -0.028,2.996 -0.504,6.216 -0.7,9.212 -0.056,0.448 -0.252,1.372 -0.364,1.932 z m 2.996,3.864 c -0.112,-0.532 0.14,-0.7 0.56,-1.036 0.84,-0.504 2.296,-1.008 3.556,-1.008 0.364,0 0.728,0.056 1.036,0.14 0.896,0.28 2.1,1.4 1.764,2.464 -0.28,1.26 -1.596,1.736 -2.66,1.96 -0.868,0.084 -2.1,0 -2.828,-0.168 -0.56,-0.532 -1.652,-1.4 -1.428,-2.352 z"
         style="-inkscape-font-specification:'Virgil 3 YOFF, Normal'"
         id="path298" />
      <path
         d="m 82.833946,22.276 c 1.148,3.108 1.568,3.192 4.788,3.864 1.344,0 2.604,0.168 3.892,-0.336 2.324,-0.532 4.116,-1.82 5.32,-3.892 0.532,-1.204 0.084,-2.66 -0.7,-3.724 -1.708,-2.128 -4.452,-3.36 -7.168,-3.36 -0.98,0 -2.044,0.168 -2.94,0.7 -0.952,0.588 -2.268,1.288 -3.192,1.96 -0.28,0.392 -0.28,1.372 0,1.764 z m 2.66,0 c 0.084,-0.728 -0.168,-1.428 0.196,-2.128 0.084,-0.448 0.868,-1.064 1.232,-1.428 0.42,-0.196 0.728,-0.56 1.064,-0.868 0.084,-0.084 0.448,-0.336 0.532,-0.364 0.364,-0.168 0.756,-0.252 1.176,-0.252 1.26,0 2.604,0.756 3.612,1.316 0.56,0.616 1.512,1.148 1.232,2.128 -0.28,2.352 -3.724,3.332 -5.768,3.332 -0.7,0 -1.372,-0.084 -1.848,-0.336 -0.504,-0.112 -1.204,-0.952 -1.428,-1.4 z"
         style="-inkscape-font-specification:'Virgil 3 YOFF, Normal'"
         id="path300" />
      <path
         d="m 105.26197,18.384 c 0.084,-0.056 0.196,-0.028 0.28,-0.028 0.168,0.056 0.588,0.504 0.784,0.728 0.28,0.448 0.308,1.288 0.532,1.764 0.112,1.148 0.392,2.492 0.7,3.556 0.308,0.392 0.588,0.924 0.896,1.4 0.056,0.224 0.196,0.28 0.336,0.28 0.28,0 0.644,-0.224 0.896,-0.28 0.308,-0.224 0.392,-0.728 0.364,-1.064 0,-0.084 -0.364,-0.924 -0.364,-1.064 l -0.532,-2.296 c 0,-1.596 -0.28,-3.024 -0.868,-4.396 -0.448,-0.728 -1.316,-2.268 -2.212,-1.988 -0.616,0.028 -1.148,-0.112 -1.568,0.42 -0.868,0.672 -1.12,1.316 -1.736,2.072 -0.224,0.28 -1.484,1.54 -1.764,1.764 0,-0.14 0.028,-0.588 0.028,-1.036 0,-0.924 0,-1.204 -0.196,-1.96 -0.28,-0.42 -0.756,-0.56 -1.26,-0.56 -0.588,-0.028 -1.036,0.364 -1.036,0.98 v 0.112 c 0,0.056 0,0.14 0.028,0.252 l 0.112,0.728 c 0.028,0.112 0.028,0.196 0.028,0.252 -0.168,1.428 -0.28,4.06 -0.532,5.32 0,0.168 -0.056,0.672 0,0.868 l 1.232,1.26 c 0.392,0.084 0.672,0 0.896,-0.364 0.364,-0.84 1.148,-2.016 1.596,-2.828 0.896,-1.372 2.044,-2.772 3.36,-3.892 z"
         style="-inkscape-font-specification:'Virgil 3 YOFF, Normal'"
         id="path302" />
      <path
         d="m 113.494,18.02 c -1.288,2.016 -2.604,4.284 -1.96,6.748 0.672,1.568 1.68,2.912 3.192,3.696 1.512,0.924 3.052,1.344 4.732,1.26 1.54,0.056 3.052,-0.504 4.564,-0.896 0.896,-0.056 1.792,-0.448 2.492,-1.232 V 26.56 c -0.056,-0.364 -0.308,-0.56 -0.56,-0.504 h -0.196 c -1.176,0.084 -1.624,0.112 -2.604,0.504 -1.372,0.364 -2.52,0.868 -3.864,0.7 -2.464,0.168 -5.04,-1.848 -5.46,-4.256 -0.028,-0.7 0.504,-1.54 0.896,-2.128 0.056,-0.028 0.14,-0.028 0.196,0 0.056,0 0.644,0.476 0.7,0.532 0.98,0.588 2.1,1.064 3.22,1.064 0.392,0 0.812,-0.056 1.204,-0.196 1.96,-0.14 3.92,-2.044 3.892,-4.06 -0.112,-2.38 -2.212,-3.696 -4.396,-3.752 -0.588,-0.028 -0.98,0.112 -1.624,0.196 -1.848,0.588 -3.276,1.876 -4.424,3.36 z m 2.184,1.344 c 0,-0.084 0.084,-0.196 0.112,-0.28 0.952,-0.952 2.128,-2.1 3.556,-2.128 0.84,0.336 2.24,0.476 1.932,1.596 -0.364,0.616 -1.204,1.036 -1.932,1.26 -0.924,0 -1.792,0.084 -2.66,-0.364 -0.14,-0.028 -0.868,-0.084 -1.008,-0.084 z"
         style="-inkscape-font-specification:'Virgil 3 YOFF, Normal'"
         id="path304" />
    </g>
  </g>
  <g
     stroke-linecap="round"
     transform="translate(224.64692,168.00971)"
     id="g876">
    <path
       d="m -3.78,-2.08 192.92,1.5 0.6,101.94 -186.61,-0.24"
       stroke="none"
       stroke-width="0"
       fill="#228be6"
       id="path872" />
    <path
       d="m -3.49,-0.27 c 47.15,3.51 95.63,1.1 192.71,-2.85 M 1.72,0.92 C 51.94,2.1 108.99,2.56 189.64,1.29 m -0.58,-3.27 c -0.05,37.04 -2.92,77.79 -3.72,101.67 m 4.15,-99.45 c 0.41,26.16 0.94,54.41 -0.85,99.45 m -0.17,-0.39 c -68.4,4.3 -131.63,5.02 -184.92,2.82 m 186.39,-0.6 C 149.23,99.11 110.9,97.9 -1.89,101.5 m 0.43,0.81 C 0.72,65.92 -0.45,29.01 -1.87,1.74 M 0.87,99.36 C -3.06,63.29 -0.41,26.6 0.52,-1.96"
       stroke="#1864ab"
       stroke-width="1"
       fill="none"
       id="path874" />
  </g>
  <g
     transform="translate(281.64692,200.00971)"
     id="g880">
    <g
       aria-label="Cloud"
       id="text878"
       style="font-size:28px;font-family:'Virgil 3 YOFF';text-anchor:middle;white-space:pre;fill:#ffffff">
      <path
         d="m 3.7879793,12.448 c -1.316,2.1 -2.492,4.564 -1.96,7.084 0.364,1.792 1.792,3.528 3.388,4.424 1.736,1.288 4.508,2.1 6.7199997,2.1 1.876,-0.14 3.08,-0.672 3.5,-0.812 0.224,-0.028 0.728,-0.42 0.868,-0.532 0.28,-0.336 0.28,-0.868 0,-1.232 -0.252,-0.252 -1.736,-0.364 -2.044,-0.364 -0.308,0 -0.644,0.028 -1.008,0.112 -1.232,0.252 -2.548,0.252 -3.136,0.336 -0.056,-0.056 -0.1679997,-0.084 -0.3079997,-0.14 -1.736,-0.448 -3.444,-1.232 -4.592,-2.66 -1.904,-1.96 -0.868,-4.536 0.336,-6.552 1.232,-1.428 2.38,-3.192 4.34,-3.192 0.8679997,-0.112 1.2879997,0.784 1.8759997,1.26 0.084,0.112 0.252,0.504 0.336,0.868 0.084,0.364 0.588,2.128 0.728,2.492 0,0.028 0.14,0.14 0.168,0.168 0.336,0.252 0.756,0.252 1.232,0.364 0.504,0 0.896,-0.448 1.064,-0.896 0,-0.14 0.028,-0.784 0.028,-0.98 0,-1.372 -0.448,-2.772 -1.26,-3.808 -0.112,-0.196 -0.168,-0.252 -0.308,-0.616 -0.112,-0.476 -0.364,-1.204 -0.42,-1.316 -0.196,-0.308 -0.616,-0.644 -1.036,-0.532 -0.112,0.084 -0.504,0.588 -0.532,0.7 h -0.112 c -0.112,0.028 -0.644,-0.168 -0.784,-0.168 h -0.168 c -0.28,0 -0.672,-0.028 -0.9799997,-0.028 -0.84,-0.084 -1.484,0.112 -2.212,0.56 -1.4,0.616 -2.8,2.1 -3.724,3.36 z"
         style="-inkscape-font-specification:'Virgil 3 YOFF, Normal'"
         id="path279" />
      <path
         d="m 21.287954,21.044 c 0.056,1.82 -0.252,3.836 1.092,5.292 0.224,0.14 0.616,0.224 1.008,0.224 0.364,0 0.7,-0.084 0.924,-0.224 0.224,-0.28 0.224,-0.42 0.196,-0.7 -0.952,-1.568 -0.868,-3.108 -1.064,-5.292 0.14,-4.62 0.588,-9.94 0.7,-14.868 0,-0.14 0,-0.364 -0.028,-0.672 l -0.112,-2.016 c -0.028,-0.308 -0.028,-0.532 -0.028,-0.672 -0.28,-0.504 -0.812,-0.896 -1.288,-0.896 -0.364,0 -0.672,0.196 -0.84,0.728 0.14,3.22 -0.224,7.448 -0.168,10.612 -0.112,3.08 -0.364,5.516 -0.392,8.484 z"
         style="-inkscape-font-specification:'Virgil 3 YOFF, Normal'"
         id="path281" />
      <path
         d="m 27.335968,22.276 c 1.148,3.108 1.568,3.192 4.788,3.864 1.344,0 2.604,0.168 3.892,-0.336 2.324,-0.532 4.116,-1.82 5.32,-3.892 0.532,-1.204 0.084,-2.66 -0.7,-3.724 -1.708,-2.128 -4.452,-3.36 -7.168,-3.36 -0.98,0 -2.044,0.168 -2.94,0.7 -0.952,0.588 -2.268,1.288 -3.192,1.96 -0.28,0.392 -0.28,1.372 0,1.764 z m 2.66,0 c 0.084,-0.728 -0.168,-1.428 0.196,-2.128 0.084,-0.448 0.868,-1.064 1.232,-1.428 0.42,-0.196 0.728,-0.56 1.064,-0.868 0.084,-0.084 0.448,-0.336 0.532,-0.364 0.364,-0.168 0.756,-0.252 1.176,-0.252 1.26,0 2.604,0.756 3.612,1.316 0.56,0.616 1.512,1.148 1.232,2.128 -0.28,2.352 -3.724,3.332 -5.768,3.332 -0.7,0 -1.372,-0.084 -1.848,-0.336 -0.504,-0.112 -1.204,-0.952 -1.428,-1.4 z"
         style="-inkscape-font-specification:'Virgil 3 YOFF, Normal'"
         id="path283" />
      <path
         d="m 53.739992,18.104 c 0,0.252 -0.028,0.532 -0.028,0.812 -0.98,1.68 -1.792,3.5 -3.612,4.228 -0.42,0.224 -0.784,0.308 -1.176,0.308 -0.532,0 -1.036,-0.168 -1.652,-0.308 -0.756,-0.616 -1.596,-1.764 -1.456,-2.8 0,-0.952 0.14,-1.624 0.56,-2.52 0,-0.028 0.168,-0.28 0.168,-0.364 0,-0.588 0.224,-1.568 -0.532,-1.764 -0.42,-0.028 -1.176,-0.28 -1.596,-0.168 -0.14,0.084 -0.616,0.56 -0.7,0.7 -0.14,0.476 -0.476,1.4 -0.364,1.96 v 0.168 c 0,0.084 -0.084,0.448 -0.168,0.532 0,1.96 -0.308,3.08 1.064,4.956 1.428,1.26 2.548,2.352 4.536,2.128 2.268,-0.504 3.36,-1.036 4.9,-2.688 0.168,0.924 0.532,1.708 1.288,2.212 0.392,0.14 0.98,0.476 1.372,0.476 0.196,0 0.336,-0.084 0.42,-0.28 0.42,-0.532 0.224,-1.092 -0.084,-1.792 -0.952,-1.288 -0.896,-2.576 -0.728,-4.06 0.224,-0.532 0.532,-1.288 0.532,-1.316 0.056,-0.616 -0.028,-1.232 -0.364,-1.764 -0.392,-0.28 -0.644,-0.644 -1.064,-0.56 -0.392,-0.028 -0.42,0.056 -0.7,0.392 -0.364,0.392 -0.42,0.98 -0.476,1.54 z"
         style="-inkscape-font-specification:'Virgil 3 YOFF, Normal'"
         id="path285" />
      <path
         d="m 58.108014,21.212 c -0.056,1.26 -0.168,2.744 0.532,3.864 0.084,0.112 0.56,0.616 0.7,0.728 0.616,0.56 1.4,0.728 2.184,0.728 0.7,0 1.428,-0.14 2.072,-0.224 1.428,-0.476 2.688,-1.568 3.724,-2.632 0.448,-0.42 1.484,-2.128 2.128,-2.492 0.56,1.54 1.12,3.444 2.296,4.62 0.28,0.168 0.616,0.476 0.924,0.476 0.112,0 0.224,-0.028 0.308,-0.168 0.42,-0.336 0.392,-0.728 0.364,-1.204 -0.56,-1.344 -1.204,-2.576 -1.596,-4.06 l -0.532,-1.792 c 0,0 -0.028,-0.028 -0.028,-0.084 l -0.14,-0.336 c 0,-0.056 -0.028,-0.084 -0.028,-0.084 V 16.76 c 0.196,-1.232 0.924,-2.184 1.064,-3.36 0.084,-0.7 0.364,-3.248 0.364,-4.06 0,-0.42 -0.224,-1.792 -0.168,-2.128 -0.056,-0.812 0.14,-1.512 -0.196,-2.296 -0.084,-0.504 -1.064,-0.868 -1.568,-0.896 -0.504,0.168 -0.812,0.504 -0.896,1.064 -0.112,0.728 -0.448,2.464 -0.532,3.36 -0.392,1.176 -0.42,2.352 -0.532,3.556 0,0.196 0,0.616 -0.028,1.12 l -0.112,3.416 c -0.028,0.504 -0.028,0.896 -0.028,1.12 -1.064,2.436 -2.576,4.788 -4.956,6.02 -0.336,0.168 -0.7,0.224 -1.092,0.224 -1.12,0 -2.24,-0.672 -1.932,-1.988 -0.028,-1.736 1.4,-2.996 2.828,-3.724 0.98,-0.112 1.708,0.028 2.66,0.364 0.364,-0.084 1.064,0.252 1.064,-0.364 0.028,-1.372 -1.344,-2.436 -2.66,-2.492 -3.108,-0.504 -5.824,2.52 -6.188,5.32 z"
         style="-inkscape-font-specification:'Virgil 3 YOFF, Normal'"
         id="path287" />
    </g>
  </g>
</svg>
